<svg width="45" height="45" viewBox="0 0 45 45" fill="none" xmlns="http://www.w3.org/2000/svg">
<path d="M14.4925 2.164C13.8158 0.529302 12.0317 -0.340777 10.3267 0.125023L2.59266 2.23431C1.06343 2.65616 0 4.04477 0 5.62673C0 27.3699 17.6301 45 39.3733 45C40.9552 45 42.3438 43.9366 42.7657 42.4073L44.875 34.6733C45.3408 32.9683 44.4707 31.1842 42.836 30.5075L34.3989 26.992C32.9663 26.3944 31.3053 26.8074 30.3297 28.0115L26.7791 32.3443C20.5919 29.4177 15.5823 24.4081 12.6557 18.2209L16.9885 14.6791C18.1926 13.6947 18.6056 12.0425 18.008 10.6099L14.4925 2.17278V2.164Z" fill="#F7EDE8"/>
</svg>
