<svg width="150" height="61" viewBox="0 0 150 61" fill="none" xmlns="http://www.w3.org/2000/svg">
<path d="M129.835 56.2961C128.807 57.298 127.509 58.0494 126.002 58.4555C123.425 59.15 120.693 58.7022 118.336 57.4118C120.279 55.4042 121.55 52.8995 121.998 50.186C123.71 53.2259 126.59 55.4612 129.835 56.2961Z" fill="#F7EDE8"/>
<path d="M140.973 50.6033C140.894 50.7665 140.81 50.9145 140.727 51.0663C140.658 51.1991 140.575 51.332 140.495 51.4534C140.434 51.5521 140.377 51.647 140.305 51.738C140.013 52.1669 139.679 52.5768 139.319 52.9487C139.228 53.0473 139.125 53.1422 139.023 53.2333C138.909 53.3396 138.791 53.4496 138.673 53.5521C138.503 53.6963 138.324 53.8329 138.146 53.962C138.04 54.0417 137.926 54.1176 137.812 54.1935C137.751 54.2314 137.694 54.2694 137.634 54.3073C137.569 54.3491 137.501 54.3946 137.429 54.4325C137.03 54.6678 136.605 54.8728 136.165 55.0473C136.1 55.0739 136.032 55.1081 135.96 55.127C135.846 55.1688 135.732 55.2067 135.622 55.2447C135.505 55.2826 135.387 55.3206 135.266 55.351C134.021 55.7001 132.746 55.7874 131.493 55.6432C131.368 55.6318 131.247 55.6166 131.121 55.5938C130.932 55.5673 130.749 55.5331 130.56 55.4952C130.131 55.4079 129.702 55.2902 129.288 55.1498C129.091 55.0815 128.89 55.0056 128.696 54.9297C128.362 54.7969 128.028 54.6451 127.706 54.4705C127.603 54.4174 127.501 54.3642 127.398 54.3035C127.118 54.1517 126.848 53.9847 126.579 53.8102C126.343 53.647 126.104 53.4762 125.873 53.294C125.702 53.1612 125.535 53.0208 125.368 52.8728C125.201 52.721 125.038 52.573 124.878 52.4212C124.67 52.2162 124.465 51.9961 124.264 51.7684C124.176 51.6773 124.097 51.5787 124.021 51.4838C123.907 51.3547 123.804 51.2181 123.698 51.0815C123.592 50.9297 123.478 50.7817 123.376 50.6223C123.262 50.4553 123.155 50.2883 123.045 50.1176C122.935 49.9468 122.837 49.7722 122.738 49.5938C122.632 49.3965 122.529 49.1916 122.431 48.979C122.343 48.7969 122.264 48.6071 122.188 48.4174C122.188 48.4174 122.186 48.4136 122.184 48.406C122.184 48.406 122.169 48.3832 122.169 48.3718C122.195 47.628 122.165 46.8955 122.062 46.1745C123.448 44.1783 124.336 41.814 124.537 39.2523C124.56 38.998 124.575 38.7475 124.579 38.4933C124.59 37.924 124.575 37.3623 124.525 36.8083C124.624 36.721 124.723 36.6375 124.825 36.554C124.928 36.4743 125.03 36.3908 125.133 36.3187C125.212 36.258 125.3 36.201 125.379 36.1479C125.622 35.9809 125.877 35.8253 126.138 35.6849C126.256 35.6204 126.374 35.5597 126.495 35.5028C126.62 35.442 126.742 35.3851 126.867 35.332C126.992 35.2788 127.114 35.2257 127.243 35.1802C126.818 36.6109 126.677 38.091 126.795 39.5407C127.087 43.3054 129.125 46.8728 132.56 48.979C132.651 49.0398 132.742 49.0929 132.84 49.146C134.689 50.2124 136.787 50.7779 138.909 50.7779C139.603 50.7779 140.294 50.7172 140.966 50.5995L140.973 50.6033Z" fill="#F7EDE8"/>
<path d="M88.1369 46.2125C87.5184 48.463 87.8295 50.8008 88.8542 52.8767H88.8428C88.7024 52.8122 88.5734 52.7514 88.4443 52.6869C88.3153 52.6262 88.1901 52.5617 88.0724 52.4972C87.9396 52.4213 87.803 52.3416 87.6739 52.2543C87.4918 52.1404 87.3172 52.0114 87.1502 51.8824C86.9225 51.704 86.7214 51.518 86.5316 51.3207C86.4823 51.2714 86.4406 51.2296 86.3912 51.1803C86.2394 51.0133 86.099 50.8425 85.97 50.6566C85.9168 50.5769 85.8561 50.4934 85.803 50.4137C85.5297 49.9886 85.3286 49.5294 85.2072 49.0626C85.1844 48.9867 85.1692 48.8995 85.154 48.8198C85.1502 48.797 85.1426 48.778 85.1388 48.7515C85.1237 48.649 85.1047 48.5465 85.0971 48.4403C85.0971 48.4213 85.0933 48.4023 85.0933 48.3795C85.0819 48.2657 85.0781 48.148 85.0781 48.0342C85.0781 47.9203 85.0819 47.8027 85.0933 47.6888C85.1464 47.0816 85.34 46.5162 85.6436 46.0076C85.7954 45.7533 85.9776 45.5181 86.1825 45.2979C86.2356 45.2448 86.2887 45.1917 86.3457 45.1348C86.4254 45.0551 86.5127 44.9792 86.5999 44.9033C86.6872 44.8274 86.7783 44.759 86.8694 44.6869C86.8808 44.6793 86.8884 44.6718 86.8884 44.6718C87.0136 44.5807 87.1275 44.5086 87.2603 44.4213C87.2717 44.4137 87.2793 44.4099 87.2793 44.4099C87.4121 44.3302 87.5411 44.2657 87.6853 44.1898C87.8295 44.1215 87.9851 44.057 88.1369 43.9924C88.2925 43.9317 88.4481 43.8786 88.6113 43.8255C88.6113 43.8255 88.6265 43.8217 88.6417 43.8141C88.8049 43.7647 88.9377 43.7306 89.1047 43.6926C89.154 43.6812 89.3096 43.6509 89.3096 43.6509H89.3058C88.7935 44.4213 88.395 45.2752 88.1445 46.1974L88.1369 46.2125Z" fill="#F7EDE8"/>
<path d="M98.1499 58.5126C97.9868 58.4974 97.8312 58.4709 97.6718 58.4443C97.52 58.4215 97.3644 58.3912 97.2126 58.357C97.2012 58.357 97.186 58.3532 97.1746 58.3456C97.0873 58.3305 96.9963 58.3077 96.9052 58.2849C96.8179 58.2622 96.7268 58.2432 96.6395 58.2166C96.4991 58.1787 96.3587 58.1407 96.2183 58.099C95.6907 57.9358 95.186 57.7384 94.7002 57.5107C94.5598 57.4462 94.427 57.3779 94.2904 57.3058C93.9981 57.154 93.7211 56.9946 93.4517 56.8276C93.4175 56.8049 93.3909 56.7897 93.3606 56.7669C93.2353 56.6872 93.1139 56.6037 92.9962 56.5202C92.8407 56.414 92.6851 56.2925 92.5333 56.1825C92.4536 56.1179 92.3777 56.0572 92.3018 55.9889C91.8046 55.5866 91.353 55.1426 90.9507 54.6644C90.8634 54.562 90.7799 54.4595 90.6926 54.3532C90.6129 54.2508 90.5295 54.1445 90.4498 54.0345C90.3701 53.9282 90.2942 53.8143 90.2183 53.7043C90.1765 53.636 90.1272 53.5639 90.0854 53.4993C90.0589 53.4576 90.0323 53.4121 90.0095 53.3741H90.0057C89.9792 53.321 89.9526 53.2754 89.926 53.2337L89.9222 53.2299C89.8729 53.1388 89.8198 53.0515 89.7704 52.9604C89.3947 52.2811 89.0987 51.5715 88.9052 50.8352C88.871 50.7214 88.8406 50.6037 88.8179 50.4899C88.7837 50.3608 88.7572 50.2356 88.7382 50.1142C88.7382 50.1028 88.7344 50.0914 88.7344 50.0876C88.7116 49.9699 88.6964 49.8523 88.6813 49.7308C88.6585 49.6018 88.6471 49.4766 88.6395 49.3475C88.6243 49.2185 88.6167 49.0895 88.6129 48.9642C88.6092 48.8352 88.6016 48.7062 88.6016 48.5771C88.6016 47.8561 88.6926 47.1274 88.8938 46.414C88.9621 46.1673 89.038 45.9244 89.1291 45.6929C89.167 45.5904 89.2088 45.488 89.2543 45.3855C89.2923 45.2944 89.334 45.2033 89.372 45.116C89.4365 44.987 89.4972 44.8618 89.5655 44.7403C89.6186 44.6379 89.6794 44.5354 89.7363 44.4329C89.9185 44.1331 90.1196 43.8409 90.3397 43.5677C90.3435 43.5639 90.3625 43.5411 90.3625 43.5411C90.3966 43.5031 90.427 43.4614 90.4611 43.4197C90.575 43.2868 90.6851 43.1654 90.8027 43.0401C90.8141 43.0288 90.8217 43.0212 90.8406 43.0022C90.9431 42.8883 91.0532 42.7897 91.1632 42.6834C91.2429 42.6075 91.5579 42.3381 91.6794 42.2432C91.8236 42.1255 91.9792 42.0117 92.1386 41.9054C92.2828 41.8067 92.4346 41.7119 92.5864 41.6132C92.7382 41.5221 92.8938 41.431 93.0494 41.3475C93.6756 41.0174 94.3473 40.7593 95.0532 40.5771C94.4004 41.617 93.8957 42.7365 93.5465 43.913C93.5351 43.951 93.52 43.9889 93.5124 44.0269C93.2657 44.8883 93.0987 45.7764 93.0266 46.6796C92.8482 48.9187 93.2126 51.1198 94.0892 53.1388V53.1464C94.1082 53.1844 94.1234 53.2261 94.1462 53.2641C94.723 54.5771 95.52 55.8105 96.5105 56.9301C97.0228 57.4993 97.5693 58.0345 98.1575 58.5088L98.1499 58.5126Z" fill="#F7EDE8"/>
<path d="M121.138 48.3265C121.134 48.5314 121.123 48.7363 121.104 48.945C121.089 49.1538 121.066 49.3663 121.039 49.575C120.979 49.9963 120.91 50.4024 120.812 50.8084C120.721 51.2069 120.607 51.6054 120.474 51.9925C120.341 52.3758 120.189 52.7553 120.022 53.1234C119.442 54.4099 118.637 55.5826 117.677 56.6073C117.597 56.6946 117.514 56.7781 117.43 56.8616H117.426C117.377 56.9223 117.32 56.9754 117.256 57.0323C117.115 57.1728 116.963 57.3056 116.815 57.4422C116.516 57.7079 116.201 57.9583 115.874 58.2012C115.544 58.4441 115.214 58.6642 114.861 58.8729C114.732 58.9526 114.595 59.0285 114.462 59.1044C114.064 59.3321 113.654 59.5295 113.229 59.7116C113.039 59.7913 112.846 59.8673 112.652 59.9469C112.295 60.0798 111.931 60.2012 111.563 60.3037C111.51 60.3189 111.461 60.3378 111.411 60.3454C111.039 60.4479 110.664 60.5352 110.288 60.6035C110.25 60.6149 110.22 60.6149 110.185 60.6263C109.392 60.7667 108.58 60.8426 107.753 60.8426C107.73 60.8464 107.715 60.8464 107.692 60.8464H107.567C107.449 60.8426 107.335 60.8426 107.218 60.8426C106.99 60.8312 106.766 60.8274 106.538 60.8046C104.599 60.649 102.785 60.1101 101.176 59.2638C100.777 59.0589 100.39 58.835 100.015 58.5921C97.8439 57.1765 96.1285 55.1841 95.1 52.8654C95.0811 52.8236 95.0697 52.8008 95.0583 52.7591V52.7477C94.2575 50.9109 93.8856 48.8843 94.0564 46.7705C94.1209 45.9773 94.2537 45.2107 94.4587 44.4707C94.47 44.4289 94.4814 44.391 94.4928 44.3454C94.7775 43.3435 95.1835 42.3986 95.6921 41.5143C95.859 41.2183 96.0412 40.9337 96.2348 40.6528C97.3163 46.6339 102.151 51.4308 108.375 52.2695C108.633 52.3075 108.891 52.334 109.157 52.3568C109.544 52.391 109.931 52.4061 110.314 52.4061C111.316 52.4061 112.299 52.2999 113.248 52.095C116.242 51.4612 118.91 49.871 120.914 47.6547C120.99 47.5674 121.066 47.4764 121.134 47.3891C121.149 47.7003 121.149 48.0077 121.138 48.3265Z" fill="#F7EDE8"/>
<path d="M123.293 38.1441C123.293 38.4818 123.278 38.8234 123.252 39.1612C123.199 39.8405 123.088 40.5084 122.933 41.146C122.846 41.5065 122.751 41.8632 122.633 42.2124C122.386 42.96 122.071 43.6773 121.703 44.3566C121.597 44.5577 121.483 44.7551 121.358 44.9448C121.225 45.1725 121.077 45.3851 120.929 45.59C120.811 45.7684 120.694 45.9278 120.557 46.0909C120.36 46.3566 120.147 46.6033 119.931 46.8462C119.798 46.998 119.658 47.1422 119.517 47.2826C119.244 47.5558 118.952 47.8215 118.652 48.0796C118.288 48.387 117.908 48.6678 117.51 48.9296C117.244 49.108 116.978 49.275 116.701 49.4306C116.531 49.5293 116.352 49.6241 116.174 49.7152C115.874 49.867 115.567 50.0074 115.252 50.1365C115.149 50.1782 115.043 50.2238 114.933 50.2617C114.66 50.368 114.371 50.4667 114.087 50.5539C113.646 50.6944 113.195 50.8006 112.736 50.8879C111.646 51.0966 110.519 51.1687 109.366 51.0815C109.328 51.0815 109.297 51.0814 109.259 51.0777C109.032 51.0625 108.811 51.0359 108.591 51.0093C102.842 50.2503 98.394 45.7873 97.487 40.2541C97.4376 39.9961 97.4073 39.738 97.3807 39.4723C97.3693 39.404 97.3655 39.3319 97.3579 39.2636C97.32 38.7892 97.3048 38.3111 97.3162 37.8329C97.32 37.5862 97.3314 37.3433 97.3541 37.0966C97.4452 35.9733 97.6767 34.8955 98.0335 33.8784C98.4965 34.6412 99.0354 35.3737 99.6312 36.0568C99.7868 36.2352 99.9424 36.4059 100.106 36.5729C100.193 36.6602 100.273 36.7437 100.36 36.8272C103.252 39.7304 107.077 41.3699 111.187 41.461C111.312 41.4648 111.43 41.4648 111.551 41.4648C112.39 41.4648 113.221 41.4002 114.037 41.2636C115.517 41.0321 116.948 40.5957 118.292 39.9543C118.61 39.8101 118.922 39.6469 119.229 39.4686C120.03 39.0283 120.789 38.5122 121.51 37.924C121.885 37.6241 122.246 37.2978 122.599 36.96C122.796 36.7665 122.994 36.5653 123.176 36.368C123.202 36.5084 123.218 36.6412 123.229 36.7816C123.278 37.2333 123.297 37.6925 123.297 38.1479L123.293 38.1441Z" fill="#F7EDE8"/>
<path d="M120.886 23.1788C120.904 22.4182 120.335 21.7874 119.614 21.7699C118.893 21.7524 118.294 22.3549 118.276 23.1155C118.257 23.8761 118.827 24.5069 119.547 24.5243C120.268 24.5418 120.867 23.9394 120.886 23.1788Z" fill="#F7EDE8"/>
<path d="M104.925 22.7926C104.943 22.032 104.374 21.4012 103.653 21.3837C102.932 21.3662 102.333 21.9686 102.315 22.7292C102.296 23.4898 102.866 24.1206 103.586 24.1381C104.307 24.1556 104.906 23.5532 104.925 22.7926Z" fill="#F7EDE8"/>
<path d="M125.657 23.6243C125.414 27.0209 122.685 29.6661 119.422 29.5788C116.052 29.4991 113.399 26.5541 113.482 23.0019C113.57 19.4498 116.363 16.6376 119.733 16.7211C121.429 16.7628 122.94 17.5295 124.017 18.7363C121.995 15.0892 118.42 12.4251 114.169 11.6281L115.896 7.32832C115.919 7.27519 115.885 7.21067 115.828 7.20308L110.093 6.15564C110.025 6.14426 109.995 6.06076 110.036 6.00763L114.59 0.0683553C114.621 0.0266096 114.568 -0.0227263 114.526 0.0114293L107.228 6.56551C107.175 6.61484 107.194 6.70593 107.266 6.7249L113.224 8.45166C113.281 8.46684 113.308 8.53515 113.281 8.58448L111.778 11.3701H111.494C111.274 11.3701 111.053 11.3739 110.837 11.3852C110.822 11.3852 110.803 11.389 110.788 11.389C110.56 11.4004 110.336 11.4156 110.116 11.4384C110.105 11.4384 110.101 11.4384 110.089 11.4422C106.799 11.7723 103.824 13.2258 101.577 15.427C100.757 16.224 100.033 17.1158 99.4253 18.0987C100.556 16.9678 102.097 16.2885 103.782 16.3264C107.148 16.4061 109.805 19.3511 109.721 22.9033C109.634 26.4554 106.837 29.2714 103.471 29.1917C100.226 29.1044 97.6417 26.372 97.5316 22.9943C97.5164 23.0551 97.505 23.1082 97.4936 23.1651C97.3684 23.8596 97.3001 24.5769 97.2849 25.3017C97.2432 27.1651 97.5582 28.9526 98.173 30.5921C98.3551 31.0968 98.5715 31.5826 98.8143 32.057C99.4026 33.2296 100.154 34.3074 101.038 35.2638C101.281 35.5332 101.539 35.7951 101.812 36.0494H101.816C104.283 38.3606 107.577 39.8027 111.22 39.8824C113.334 39.9317 115.349 39.5181 117.175 38.7249C117.513 38.5845 117.843 38.4289 118.165 38.2581C118.795 37.9279 119.391 37.5522 119.964 37.1386C120.416 36.8046 120.852 36.4441 121.266 36.0494C121.346 35.9849 121.429 35.9052 121.501 35.8293C121.953 35.389 122.374 34.9184 122.761 34.4251C122.875 34.2847 122.981 34.1442 123.08 34C123.296 33.7078 123.494 33.4118 123.683 33.112C123.786 32.945 123.881 32.7818 123.976 32.6224C124.196 32.2277 124.401 31.8217 124.59 31.4004C125.334 29.7306 125.763 27.89 125.809 25.9469C125.824 25.1537 125.782 24.3758 125.668 23.6167L125.657 23.6243Z" fill="#F7EDE8"/>
<path d="M1.89062 53.2714V42.186H7.86785V43.6699H3.50732V46.9375H7.86785V48.4213H3.50732V51.7913H7.86785V53.2752H1.89062V53.2714Z" fill="#F7EDE8"/>
<path d="M9.71875 53.2714V42.186H11.2785V53.2714H9.71875Z" fill="#F7EDE8"/>
<path d="M14.4194 49.7949C14.7799 51.1725 15.8729 52.0567 17.148 52.0567C18.1234 52.0567 19.0342 51.5482 19.5161 50.664H21.0759C20.4308 52.3717 18.8748 53.4799 17.0911 53.4799C14.7533 53.4799 12.8672 51.4116 12.8672 49.1953C12.8672 46.5729 14.8444 44.7437 17.0456 44.7437C19.4896 44.7437 21.3454 46.6336 21.3454 49.0131C21.3454 49.2674 21.3454 49.5065 21.2998 49.7911H14.4232L14.4194 49.7949ZM19.7818 48.5956C19.6604 47.1877 18.4194 46.1668 17.0835 46.1668C15.7476 46.1668 14.537 47.1725 14.4156 48.5956H19.778H19.7818Z" fill="#F7EDE8"/>
<path d="M30.8063 50.5312C30.1459 52.4022 28.5596 53.4838 26.7152 53.4838C24.3319 53.4838 22.4609 51.5673 22.4609 49.1992C22.4609 46.6982 24.275 44.7476 26.7 44.7476C28.5862 44.7476 30.3091 45.9316 30.8063 47.7305H29.0833C28.6203 46.7551 27.8689 46.1707 26.7456 46.1707C25.1137 46.1707 24.0169 47.4155 24.0169 49.1081C24.0169 50.8007 25.1403 52.0606 26.7152 52.0606C27.7778 52.0606 28.6317 51.4914 29.0681 50.5312H30.8063Z" fill="#F7EDE8"/>
<path d="M32.4671 53.2714V46.3948H31.3438V44.9716H32.4671V42.186H34.0269V44.9716H35.3893V46.3948H34.0269V53.2714H32.4671Z" fill="#F7EDE8"/>
<path d="M36.4375 53.2712V44.9714H37.891V45.719H37.9214C38.2971 45.1649 38.9384 44.8044 40.0352 44.7437V46.3452C38.688 46.3907 37.9973 47.2142 37.9973 48.607V53.2674H36.4375V53.2712Z" fill="#F7EDE8"/>
<path d="M41.5469 44.0114V42.1821H43.1066V44.0114H41.5469ZM41.5469 53.2713V44.9715H43.1066V53.2713H41.5469Z" fill="#F7EDE8"/>
<path d="M52.8766 50.5312C52.2163 52.4022 50.6299 53.4838 48.7855 53.4838C46.4022 53.4838 44.5312 51.5673 44.5312 49.1992C44.5312 46.6982 46.3453 44.7476 48.7703 44.7476C50.6565 44.7476 52.3794 45.9316 52.8766 47.7305H51.1536C50.6906 46.7551 49.9392 46.1707 48.8159 46.1707C47.184 46.1707 46.0872 47.4155 46.0872 49.1081C46.0872 50.8007 47.2106 52.0606 48.7855 52.0606C49.8481 52.0606 50.702 51.4914 51.1385 50.5312H52.8766Z" fill="#F7EDE8"/>
<path d="M58.9609 53.2714V42.186H60.5776V51.7913H64.4296V53.2752H58.9609V53.2714Z" fill="#F7EDE8"/>
<path d="M65.6077 53.2714V46.3948H64.4844V44.9716H65.6077V42.186H67.1675V44.9716H68.5299V46.3948H67.1675V53.2714H65.6077Z" fill="#F7EDE8"/>
<path d="M76.4312 53.2713V52.0873H76.4008C75.7556 52.9867 74.6779 53.48 73.4634 53.48C71.0498 53.48 69.1484 51.6508 69.1484 49.2106C69.1484 46.7704 70.9473 44.7438 73.4179 44.7438C74.5412 44.7438 75.6038 45.1499 76.2794 45.9886H76.3097V42.1821H77.8695V53.2675H76.4312V53.2713ZM73.5393 46.1707C71.953 46.1707 70.7082 47.5028 70.7082 49.1385C70.7082 50.7742 71.9834 52.0607 73.5393 52.0607C75.0953 52.0607 76.4312 50.7742 76.4312 49.1992C76.4312 47.5066 75.2927 46.1745 73.5393 46.1745V46.1707Z" fill="#F7EDE8"/>
<path d="M79.5156 53.2716V51.4424H81.0754V53.2716H79.5156Z" fill="#F7EDE8"/>
<path d="M11.3283 38.2242C4.58823 38.2242 0 33.4044 0 26.3418C0 19.2792 4.55787 14.4595 11.1651 14.4595C16.8311 14.4595 20.444 17.2602 21.6471 22.042C21.6812 22.2052 21.5825 22.3342 21.4194 22.3342H16.8956C16.7324 22.3342 16.5693 22.2052 16.5389 22.042C15.7913 19.5373 14 18.2356 11.1992 18.2356C7.2296 18.2356 5.11195 21.3589 5.11195 26.4063C5.11195 31.4538 7.32448 34.4481 11.3624 34.4481C14.6186 34.4481 16.7021 32.5278 16.8311 29.0135H11.1651C11.0019 29.0135 10.8729 28.8845 10.8729 28.7213V25.6625C10.8729 25.4993 11.0019 25.3703 11.1651 25.3703H21.8406C22.0038 25.3703 22.1328 25.4993 22.1328 25.6625C22.1973 34.0951 18.3567 38.228 11.3245 38.228L11.3283 38.2242Z" fill="#F7EDE8"/>
<path d="M23.925 37.7345C23.7618 37.7345 23.6328 37.6055 23.6328 37.4423L23.7618 29.336L23.6328 21.2639C23.6328 21.1007 23.7618 20.9717 23.925 20.9717H28.221C28.3842 20.9717 28.5133 21.1007 28.5133 21.2639L28.3842 23.8028C29.6859 21.818 31.9326 20.8389 34.3728 20.8389C34.6347 20.8389 34.8928 20.873 35.1205 20.9034C35.2837 20.9375 35.4127 21.1007 35.4127 21.2601V24.2886C35.4127 24.4518 35.2837 24.5504 35.1205 24.5504C34.9269 24.5163 34.6954 24.5163 34.5019 24.5163C31.0522 24.5163 28.4791 26.4366 28.5133 30.2772V37.4385C28.5133 37.6017 28.3842 37.7307 28.221 37.7307H23.925V37.7345Z" fill="#F7EDE8"/>
<path d="M42.346 38.1254C38.7976 38.1254 36.4864 35.7155 36.4864 31.613V28.0988L36.4219 21.2639C36.4219 21.1007 36.5509 20.9717 36.7141 20.9717H41.0746C41.2378 20.9717 41.3668 21.1007 41.3668 21.2639L41.2682 28.0988V31.5485C41.2682 33.3702 42.3763 34.5428 43.8412 34.5428C45.5983 34.5428 47.4883 32.9148 47.4883 29.336V28.0988L47.4238 21.2639C47.4238 21.1007 47.5528 20.9717 47.716 20.9717H52.1448C52.308 20.9717 52.4371 21.1007 52.4371 21.2639L52.3384 29.0134L52.3725 37.4461C52.3725 37.6092 52.2435 37.7383 52.0803 37.7383H47.9475C47.7843 37.7383 47.6553 37.6092 47.6553 37.4461L47.7539 35.6244C46.6154 37.0893 44.6951 38.1292 42.3498 38.1292L42.346 38.1254Z" fill="#F7EDE8"/>
<path d="M63.6339 38.0607C61.5504 38.0607 59.9223 37.3131 58.7838 35.943L58.8825 37.4421C58.8825 37.6053 58.7534 37.7343 58.5902 37.7343H54.2297C54.0665 37.7343 53.9375 37.6053 53.9375 37.4421L54.0362 26.3415L53.9375 15.241C53.9375 15.0778 54.0665 14.9487 54.2297 14.9487H58.5599C58.7231 14.9487 58.8521 15.0778 58.8521 15.241L58.818 22.8918C59.9906 21.4611 61.6491 20.6451 63.7326 20.6451C68.484 20.6451 70.9925 24.4212 70.9925 29.3055C70.9925 34.1897 68.1918 38.0607 63.6339 38.0607ZM62.2677 34.74C64.7421 34.8045 66.0096 32.8842 66.0096 29.499C66.0096 25.8216 64.7079 23.9317 62.3625 23.9658C59.9868 23.9658 58.7155 25.7229 58.6851 29.1726C58.651 32.7552 59.9223 34.7058 62.2639 34.74H62.2677Z" fill="#F7EDE8"/>
<path d="M79.8817 38.125C74.9975 38.125 71.8741 36.1402 71.7109 32.3945C71.7109 32.2313 71.84 32.1023 72.0032 32.1023H76.1701C76.3333 32.1023 76.4624 32.2313 76.4624 32.3945C76.5914 34.2806 77.8286 35.0966 80.1094 35.0966C82.0297 35.0966 83.0734 34.349 83.0734 33.0472C83.0734 29.8556 72.1018 32.9486 72.1018 25.9163C72.1018 22.4324 74.9026 20.5767 79.4263 20.5767C83.95 20.5767 86.7849 22.3338 87.0772 25.8518C87.1113 26.015 86.9785 26.144 86.8153 26.144H82.8457C82.6825 26.144 82.5534 26.015 82.5193 25.8518C82.2574 24.4211 81.3466 23.5406 79.3618 23.5406C77.7679 23.5406 76.7584 24.125 76.7584 25.5596C76.7584 28.7512 87.7299 25.4951 87.7299 32.6222C87.7299 36.1364 84.4092 38.125 79.8855 38.125H79.8817Z" fill="#F7EDE8"/>
<path d="M146.258 40.4523C146.564 39.9227 146.406 39.2575 145.903 38.9666C145.401 38.6757 144.745 38.8692 144.438 39.3989C144.131 39.9285 144.29 40.5937 144.793 40.8846C145.295 41.1755 145.951 40.982 146.258 40.4523Z" fill="#F7EDE8"/>
<path d="M135.515 34.2253C135.822 33.6956 135.663 33.0305 135.161 32.7396C134.658 32.4487 134.003 32.6422 133.696 33.1718C133.389 33.7015 133.548 34.3667 134.05 34.6576C134.553 34.9485 135.209 34.7549 135.515 34.2253Z" fill="#F7EDE8"/>
<path d="M142.751 44.391C140.409 43.0361 139.665 39.9318 141.1 37.4574C142.53 34.9868 145.589 34.0836 147.931 35.4384C148.925 36.0152 149.631 36.9033 149.999 37.9242C149.783 34.5048 147.988 31.2524 144.925 29.279L145.377 27.0475C145.384 27.0096 145.418 26.9868 145.456 26.9944L147.935 27.4726C147.976 27.4801 148.014 27.4498 148.014 27.408L148.276 22.8236C148.276 22.8236 148.257 22.8008 148.25 22.8236C148.026 23.7534 147.346 26.5466 147.346 26.5466C147.335 26.5845 147.297 26.6073 147.259 26.5959C146.88 26.4631 145.092 25.8369 144.709 25.7041C144.675 25.6927 144.637 25.7078 144.625 25.742C144.504 26.0798 143.988 27.5029 143.608 28.5579C143.563 28.5352 143.517 28.5124 143.472 28.4934C142.91 28.2392 142.337 28.0342 141.756 27.8862C141.639 27.8521 141.525 27.8255 141.407 27.7989C141.289 27.7724 141.176 27.7458 141.058 27.723C140.747 27.6585 140.432 27.6168 140.121 27.5826C139.923 27.5598 139.726 27.5447 139.529 27.5333C139.335 27.5219 139.134 27.5181 138.94 27.5181C138.785 27.5181 138.633 27.5219 138.477 27.5295C138.36 27.5333 138.246 27.5409 138.128 27.5522C138.011 27.556 137.897 27.5674 137.783 27.5864C137.692 27.5902 137.601 27.6016 137.51 27.613C137.392 27.6282 137.274 27.6471 137.153 27.6661C137.115 27.6699 137.073 27.6775 137.028 27.6889C136.952 27.7003 136.876 27.7154 136.8 27.7306C136.648 27.7572 136.492 27.7913 136.341 27.8293C136.261 27.8521 136.177 27.8672 136.105 27.89C135.988 27.9242 135.874 27.9545 135.76 27.9887C135.646 28.0228 135.532 28.057 135.422 28.0949C135.251 28.1557 135.085 28.2126 134.918 28.2771C134.751 28.3416 134.587 28.4099 134.424 28.482C134.344 28.52 134.261 28.5504 134.181 28.5959C134.132 28.6187 134.083 28.6452 134.037 28.6718C135.103 28.4896 136.208 28.6604 137.191 29.2259C139.532 30.5807 140.269 33.6889 138.838 36.1595C137.407 38.63 134.348 39.5333 132.007 38.1784C129.919 36.9678 129.103 34.3796 129.973 32.0798C129.885 32.1936 129.806 32.3075 129.726 32.4251C129.585 32.6414 129.453 32.854 129.324 33.0779C129.195 33.3056 129.069 33.5371 128.959 33.7686C128.872 33.9393 128.796 34.1139 128.724 34.2923C128.659 34.4441 128.595 34.5997 128.534 34.7553C128.53 34.7781 128.523 34.797 128.511 34.816C128.5 34.8502 128.496 34.8767 128.485 34.8957C128.447 35.0133 128.409 35.131 128.367 35.2448C128.307 35.427 128.253 35.6092 128.204 35.7951C128.166 35.9393 128.136 36.0874 128.102 36.2316C128.064 36.3948 128.033 36.5504 128.003 36.7097C127.988 36.816 127.965 36.9299 127.95 37.0437C127.927 37.1879 127.912 37.3359 127.897 37.4726C127.893 37.5409 127.881 37.6168 127.874 37.6927C127.863 37.8445 127.851 37.9925 127.847 38.1443C127.844 38.2999 127.836 38.4517 127.836 38.6073C127.836 38.7629 127.84 38.9033 127.847 39.0551C127.859 39.2828 127.874 39.5029 127.897 39.723C127.912 39.8938 127.935 40.0608 127.957 40.2354C127.961 40.2847 127.973 40.334 127.98 40.3796H127.984V40.3948C128.022 40.6263 128.064 40.8615 128.117 41.093C128.177 41.3283 128.234 41.556 128.299 41.7837C128.363 41.9925 128.428 42.1974 128.504 42.3985C128.572 42.5959 128.656 42.8008 128.739 42.9944C128.781 43.1006 128.83 43.2107 128.88 43.3132C128.933 43.427 128.986 43.5333 129.043 43.6471C129.096 43.7534 129.149 43.8634 129.214 43.9697C129.331 44.186 129.456 44.3985 129.589 44.6035C129.642 44.6832 129.692 44.7591 129.745 44.8388C129.798 44.9185 129.851 44.9944 129.908 45.0703C129.912 45.0817 129.919 45.093 129.931 45.1044C129.973 45.1689 130.022 45.2335 130.071 45.2942C130.136 45.3853 130.2 45.4726 130.276 45.5598C130.314 45.6016 130.344 45.6471 130.379 45.6889C130.466 45.7951 130.557 45.8976 130.648 46.0001C130.739 46.1063 130.838 46.205 130.933 46.3075C131.024 46.4061 131.115 46.501 131.214 46.5921C131.327 46.6984 131.441 46.8084 131.559 46.9109C131.741 47.0779 131.935 47.2335 132.136 47.3891C132.223 47.4574 132.314 47.5219 132.405 47.5864C132.405 47.5864 132.439 47.613 132.455 47.6244C132.599 47.7268 132.747 47.8217 132.891 47.9204C133.058 48.0266 133.225 48.1367 133.396 48.2316C133.908 48.5276 134.428 48.7743 134.963 48.9792C135.141 49.0475 135.324 49.112 135.506 49.1727C135.703 49.2373 135.904 49.298 136.109 49.3511C136.288 49.3928 136.458 49.4384 136.637 49.4763C136.735 49.4991 136.83 49.5181 136.929 49.5371C137.02 49.5522 137.119 49.5712 137.214 49.5864C137.403 49.613 137.597 49.6395 137.783 49.6623C137.862 49.6737 137.95 49.6775 138.029 49.6851C138.136 49.6965 138.246 49.7003 138.352 49.7078C138.546 49.7192 138.735 49.723 138.921 49.723C139.107 49.723 139.297 49.7192 139.487 49.7078C139.574 49.704 139.658 49.6965 139.741 49.6927C139.908 49.6813 140.075 49.6661 140.246 49.6433C140.398 49.6281 140.553 49.6054 140.705 49.5788C140.728 49.5788 140.747 49.575 140.77 49.5674C140.861 49.5522 140.952 49.5333 141.043 49.5181C141.183 49.4839 141.327 49.4574 141.472 49.427C141.487 49.4232 141.506 49.4156 141.521 49.4118C141.714 49.3625 141.904 49.3132 142.098 49.26C142.242 49.2183 142.394 49.1689 142.538 49.1158C142.652 49.0779 142.766 49.0361 142.876 48.9906C142.99 48.9488 143.103 48.9033 143.214 48.8578C143.327 48.816 143.434 48.7667 143.548 48.7135C143.654 48.6642 143.768 48.6111 143.878 48.5579C143.984 48.5048 144.094 48.4517 144.196 48.391C144.413 48.2771 144.622 48.1557 144.826 48.0266C144.929 47.9621 145.031 47.8976 145.134 47.8293C145.251 47.7496 145.369 47.6661 145.483 47.5826C145.601 47.5029 145.711 47.4156 145.821 47.3245C145.935 47.2373 146.041 47.1462 146.155 47.0551C146.261 46.964 146.371 46.8653 146.474 46.7705C146.576 46.6756 146.671 46.5807 146.77 46.4858C146.868 46.391 146.963 46.2885 147.062 46.186C147.176 46.0684 147.282 45.9431 147.384 45.8217C147.491 45.6965 147.593 45.575 147.696 45.4384C148.003 45.0437 148.284 44.6263 148.542 44.1784C148.739 43.8331 148.918 43.4839 149.073 43.1272C147.517 45.0323 144.853 45.6244 142.758 44.4175L142.751 44.391Z" fill="#F7EDE8"/>
</svg>
