<svg width="500" height="500" viewBox="0 0 500 500" fill="none" xmlns="http://www.w3.org/2000/svg">
<rect width="500" height="500" rx="20" fill="black"/>
<path d="M330.996 419.236C324.264 425.79 315.767 430.705 305.904 433.361C289.035 437.904 271.147 434.975 255.719 426.534C268.439 413.403 276.762 397.019 279.693 379.27C290.898 399.154 309.755 413.775 330.996 419.236Z" fill="#F7EDE8"/>
<path d="M403.915 382C403.394 383.067 402.847 384.035 402.3 385.028C401.853 385.897 401.307 386.766 400.785 387.56C400.387 388.205 400.015 388.826 399.543 389.422C397.63 392.227 395.443 394.908 393.083 397.341C392.487 397.986 391.816 398.607 391.145 399.202C390.4 399.897 389.63 400.617 388.86 401.288C387.742 402.231 386.574 403.125 385.406 403.969C384.711 404.49 383.965 404.986 383.22 405.483C382.823 405.731 382.45 405.979 382.052 406.228C381.63 406.501 381.183 406.798 380.711 407.047C378.102 408.586 375.32 409.926 372.438 411.068C372.015 411.242 371.568 411.465 371.096 411.589C370.351 411.862 369.606 412.111 368.885 412.359C368.115 412.607 367.345 412.855 366.55 413.054C358.401 415.338 350.053 415.909 341.855 414.965C341.035 414.891 340.24 414.792 339.42 414.643C338.178 414.469 336.985 414.246 335.743 413.997C332.936 413.426 330.128 412.657 327.42 411.738C326.128 411.292 324.812 410.795 323.545 410.299C321.358 409.43 319.172 408.437 317.06 407.295C316.39 406.947 315.719 406.6 315.048 406.203C313.21 405.21 311.446 404.117 309.682 402.976C308.141 401.908 306.576 400.791 305.061 399.6C303.943 398.731 302.85 397.812 301.756 396.844C300.663 395.851 299.595 394.883 298.551 393.89C297.185 392.55 295.843 391.11 294.527 389.62C293.955 389.025 293.434 388.379 292.937 387.759C292.191 386.915 291.521 386.021 290.825 385.127C290.129 384.134 289.384 383.166 288.713 382.124C287.968 381.031 287.272 379.939 286.552 378.822C285.831 377.705 285.185 376.563 284.539 375.396C283.844 374.106 283.173 372.765 282.527 371.375C281.956 370.183 281.434 368.942 280.937 367.701C280.937 367.701 280.929 367.676 280.912 367.627C280.912 367.627 280.813 367.478 280.813 367.403C280.987 362.538 280.788 357.747 280.117 353.03C289.185 339.973 294.999 324.508 296.316 307.752C296.465 306.088 296.564 304.45 296.589 302.787C296.663 299.063 296.564 295.389 296.241 291.765C296.887 291.194 297.533 290.648 298.204 290.102C298.874 289.581 299.545 289.035 300.216 288.563C300.738 288.166 301.309 287.793 301.831 287.446C303.421 286.354 305.085 285.336 306.8 284.417C307.57 283.995 308.34 283.598 309.135 283.226C309.955 282.829 310.75 282.456 311.57 282.109C312.39 281.761 313.185 281.414 314.029 281.116C311.247 290.474 310.328 300.156 311.098 309.638C313.011 334.263 326.352 357.598 348.836 371.375C349.432 371.772 350.028 372.12 350.674 372.467C362.773 379.443 376.512 383.141 390.4 383.141C394.947 383.141 399.468 382.744 403.866 381.975L403.915 382Z" fill="#F7EDE8"/>
<path d="M58.0243 353.279C53.9747 367.999 56.012 383.291 62.7199 396.87H62.6453C61.7261 396.448 60.8814 396.05 60.0367 395.628C59.192 395.231 58.3721 394.809 57.602 394.387C56.7324 393.891 55.838 393.369 54.9933 392.798C53.8008 392.054 52.658 391.21 51.5648 390.366C50.0742 389.199 48.7575 387.983 47.5153 386.692C47.1923 386.369 46.919 386.096 46.596 385.773C45.6023 384.681 44.683 383.564 43.8383 382.348C43.4905 381.826 43.093 381.28 42.7452 380.759C40.9565 377.979 39.6397 374.975 38.8447 371.922C38.6956 371.425 38.5963 370.854 38.4969 370.333C38.472 370.184 38.4224 370.06 38.3975 369.886C38.2981 369.216 38.1739 368.546 38.1242 367.851C38.1242 367.726 38.0994 367.602 38.0994 367.453C38.0248 366.709 38 365.939 38 365.194C38 364.45 38.0248 363.68 38.0994 362.935C38.4472 358.964 39.7142 355.265 41.7017 351.939C42.6955 350.275 43.8881 348.736 45.2296 347.296C45.5775 346.949 45.9253 346.601 46.2979 346.229C46.8196 345.708 47.3911 345.211 47.9625 344.715C48.5339 344.218 49.1302 343.771 49.7264 343.3C49.8009 343.25 49.8506 343.201 49.8506 343.201C50.6705 342.605 51.4158 342.133 52.2853 341.562C52.3599 341.513 52.4096 341.488 52.4096 341.488C53.2791 340.966 54.1238 340.544 55.0679 340.048C56.012 339.601 57.0306 339.179 58.0243 338.757C59.0429 338.36 60.0615 338.012 61.1298 337.665C61.1298 337.665 61.2292 337.64 61.3286 337.59C62.3969 337.268 63.2664 337.044 64.3596 336.796C64.6826 336.722 65.7011 336.523 65.7011 336.523H65.6763C62.3224 341.562 59.7137 347.148 58.074 353.18L58.0243 353.279Z" fill="#F7EDE8"/>
<path d="M123.57 433.735C122.502 433.636 121.483 433.462 120.44 433.288C119.446 433.139 118.428 432.941 117.434 432.717C117.359 432.717 117.26 432.693 117.185 432.643C116.614 432.544 116.018 432.395 115.421 432.246C114.85 432.097 114.254 431.973 113.682 431.799C112.763 431.551 111.844 431.302 110.925 431.029C107.471 429.962 104.167 428.671 100.987 427.182C100.068 426.76 99.1982 426.313 98.3038 425.841C96.3908 424.848 94.5772 423.806 92.8132 422.713C92.5896 422.564 92.4157 422.465 92.217 422.316C91.3971 421.795 90.6021 421.249 89.832 420.703C88.8134 420.008 87.7947 419.213 86.801 418.493C86.2793 418.071 85.7824 417.674 85.2855 417.227C82.0309 414.596 79.0745 411.692 76.441 408.564C75.8696 407.894 75.323 407.223 74.7516 406.528C74.2299 405.858 73.6833 405.163 73.1616 404.443C72.6398 403.748 72.1429 403.003 71.6461 402.283C71.3728 401.837 71.0498 401.365 70.7765 400.943C70.6026 400.67 70.4287 400.372 70.2796 400.124H70.2548C70.0809 399.776 69.907 399.478 69.7331 399.205L69.7082 399.18C69.3853 398.585 69.0375 398.014 68.7145 397.418C66.2549 392.974 64.3171 388.332 63.05 383.517C62.8264 382.772 62.6277 382.002 62.4786 381.258C62.255 380.414 62.0811 379.594 61.9569 378.8C61.9569 378.726 61.9321 378.651 61.9321 378.626C61.783 377.857 61.6836 377.087 61.5842 376.293C61.4351 375.449 61.3606 374.63 61.311 373.786C61.2116 372.942 61.1619 372.098 61.137 371.279C61.1122 370.434 61.0625 369.59 61.0625 368.746C61.0625 364.03 61.6588 359.264 62.9755 354.597C63.4227 352.983 63.9196 351.395 64.5158 349.88C64.7643 349.21 65.0376 348.54 65.3357 347.87C65.5841 347.274 65.8574 346.678 66.1058 346.107C66.5282 345.263 66.9257 344.444 67.3729 343.65C67.7207 342.979 68.1182 342.309 68.4909 341.639C69.6834 339.678 71.0001 337.766 72.4411 335.979C72.4659 335.954 72.5902 335.805 72.5902 335.805C72.8138 335.557 73.0125 335.284 73.2361 335.011C73.9814 334.142 74.7019 333.348 75.4721 332.529C75.5466 332.454 75.5963 332.404 75.7205 332.28C76.3913 331.536 77.1118 330.89 77.8323 330.195C78.354 329.699 80.416 327.936 81.2111 327.316C82.1551 326.546 83.1737 325.801 84.2172 325.106C85.1612 324.461 86.155 323.84 87.1488 323.195C88.1426 322.599 89.1612 322.003 90.1798 321.457C94.279 319.298 98.6765 317.61 103.297 316.418C99.0243 323.22 95.72 330.543 93.4343 338.238C93.3598 338.486 93.2604 338.735 93.2108 338.983C91.5959 344.618 90.5028 350.427 90.0307 356.335C88.863 370.981 91.248 385.378 96.987 398.585V398.634C97.1113 398.883 97.2107 399.156 97.3597 399.404C101.136 407.993 106.353 416.061 112.838 423.384C116.192 427.107 119.769 430.607 123.62 433.71L123.57 433.735Z" fill="#F7EDE8"/>
<path d="M274.062 367.106C274.037 368.447 273.963 369.787 273.838 371.153C273.739 372.518 273.59 373.908 273.416 375.273C273.019 378.029 272.571 380.685 271.925 383.341C271.329 385.947 270.584 388.554 269.714 391.086C268.845 393.593 267.851 396.076 266.758 398.483C262.957 406.899 257.69 414.569 251.404 421.272C250.882 421.843 250.336 422.389 249.789 422.935H249.765C249.442 423.332 249.069 423.68 248.647 424.052C247.727 424.97 246.734 425.839 245.765 426.733C243.802 428.471 241.74 430.109 239.603 431.698C237.442 433.286 235.28 434.726 232.97 436.092C232.125 436.613 231.231 437.109 230.361 437.606C227.753 439.095 225.069 440.386 222.287 441.578C221.045 442.099 219.778 442.595 218.511 443.117C216.175 443.985 213.79 444.78 211.38 445.45C211.033 445.549 210.71 445.673 210.387 445.723C207.952 446.393 205.492 446.964 203.033 447.411C202.784 447.486 202.586 447.486 202.362 447.56C197.17 448.479 191.853 448.975 186.437 448.975C186.288 449 186.189 449 186.039 449H185.22C184.449 448.975 183.704 448.975 182.934 448.975C181.443 448.901 179.978 448.876 178.487 448.727C165.792 447.709 153.916 444.184 143.382 438.648C140.774 437.308 138.239 435.843 135.78 434.255C121.569 424.995 110.34 411.963 103.607 396.795C103.483 396.522 103.408 396.373 103.333 396.1V396.026C98.0914 384.011 95.6567 370.755 96.7746 356.928C97.197 351.74 98.0665 346.726 99.4081 341.885C99.4826 341.612 99.5572 341.364 99.6317 341.066C101.495 334.513 104.153 328.332 107.482 322.548C108.576 320.611 109.768 318.75 111.035 316.913C118.116 356.035 149.767 387.412 190.511 392.898C192.201 393.146 193.89 393.32 195.629 393.469C198.163 393.693 200.697 393.792 203.207 393.792C209.766 393.792 216.2 393.097 222.411 391.756C242.013 387.611 259.479 377.21 272.596 362.712C273.093 362.141 273.59 361.546 274.037 360.975C274.137 363.01 274.137 365.021 274.062 367.106Z" fill="#F7EDE8"/>
<path d="M288.176 300.503C288.176 302.712 288.076 304.946 287.902 307.156C287.555 311.599 286.834 315.968 285.816 320.139C285.244 322.497 284.623 324.83 283.853 327.114C282.238 332.004 280.176 336.696 277.766 341.139C277.07 342.455 276.325 343.746 275.505 344.987C274.636 346.477 273.667 347.867 272.698 349.207C271.928 350.374 271.158 351.417 270.263 352.484C268.971 354.222 267.58 355.835 266.164 357.424C265.294 358.417 264.375 359.36 263.456 360.279C261.667 362.066 259.754 363.804 257.791 365.492C255.406 367.502 252.922 369.339 250.313 371.052C248.574 372.219 246.835 373.311 245.022 374.329C243.904 374.974 242.736 375.595 241.568 376.191C239.605 377.184 237.593 378.102 235.531 378.946C234.86 379.219 234.165 379.517 233.444 379.765C231.655 380.46 229.767 381.106 227.904 381.677C225.022 382.595 222.066 383.29 219.059 383.861C211.929 385.226 204.551 385.698 196.998 385.127C196.749 385.127 196.551 385.127 196.302 385.102C194.812 385.003 193.371 384.829 191.93 384.656C154.291 379.691 125.174 350.498 119.236 314.305C118.913 312.617 118.714 310.929 118.54 309.191C118.466 308.744 118.441 308.273 118.391 307.826C118.143 304.723 118.043 301.595 118.118 298.467C118.143 296.854 118.217 295.265 118.366 293.652C118.963 286.304 120.478 279.254 122.813 272.601C125.844 277.591 129.372 282.382 133.273 286.85C134.291 288.017 135.31 289.134 136.378 290.226C136.95 290.797 137.471 291.343 138.043 291.889C156.974 310.879 182.017 321.603 208.923 322.199C209.743 322.224 210.513 322.224 211.308 322.224C216.799 322.224 222.24 321.802 227.581 320.908C237.27 319.394 246.636 316.539 255.431 312.344C257.518 311.401 259.555 310.333 261.568 309.166C266.81 306.287 271.779 302.911 276.499 299.063C278.959 297.102 281.319 294.967 283.629 292.758C284.921 291.492 286.213 290.176 287.406 288.885C287.579 289.804 287.679 290.673 287.753 291.591C288.076 294.545 288.201 297.549 288.201 300.528L288.176 300.503Z" fill="#F7EDE8"/>
<path d="M272.416 202.614C272.537 197.639 268.809 193.513 264.091 193.398C259.372 193.284 255.449 197.224 255.328 202.2C255.207 207.175 258.935 211.301 263.653 211.415C268.372 211.53 272.295 207.589 272.416 202.614Z" fill="#F7EDE8"/>
<path d="M167.924 200.088C168.044 195.112 164.317 190.986 159.599 190.872C154.88 190.758 150.957 194.698 150.836 199.673C150.715 204.648 154.442 208.774 159.161 208.889C163.88 209.003 167.803 205.063 167.924 200.088Z" fill="#F7EDE8"/>
<path d="M303.649 205.528C302.059 227.745 284.196 245.048 262.83 244.477C240.769 243.955 223.403 224.692 223.949 201.457C224.521 178.222 242.806 159.828 264.867 160.374C275.973 160.647 285.861 165.661 292.916 173.555C279.675 149.7 256.271 132.273 228.446 127.06L239.75 98.935C239.899 98.5874 239.676 98.1654 239.303 98.1158L201.763 91.2644C201.316 91.19 201.118 90.6438 201.391 90.2963L231.204 51.4471C231.402 51.1741 231.055 50.8513 230.781 51.0748L183.006 93.9454C182.658 94.2681 182.783 94.8639 183.255 94.988L222.26 106.283C222.633 106.382 222.806 106.829 222.633 107.152L212.794 125.372H210.931C209.49 125.372 208.049 125.397 206.633 125.472C206.534 125.472 206.409 125.496 206.31 125.496C204.819 125.571 203.354 125.67 201.913 125.819C201.838 125.819 201.813 125.819 201.739 125.844C180.199 128.004 160.721 137.511 146.013 151.909C140.647 157.122 135.902 162.955 131.927 169.385C139.33 161.987 149.417 157.544 160.448 157.792C182.484 158.313 199.875 177.577 199.329 200.812C198.757 224.047 180.447 242.466 158.411 241.945C137.169 241.374 120.25 223.501 119.53 201.407C119.43 201.805 119.356 202.152 119.281 202.525C118.461 207.067 118.014 211.759 117.915 216.5C117.641 228.689 119.703 240.381 123.728 251.105C124.921 254.406 126.337 257.584 127.927 260.687C131.778 268.357 136.697 275.407 142.485 281.663C144.075 283.425 145.765 285.138 147.554 286.801H147.579C163.727 301.919 185.292 311.352 209.142 311.873C222.98 312.196 236.173 309.49 248.123 304.302C250.334 303.384 252.495 302.366 254.607 301.249C258.731 299.089 262.631 296.631 266.383 293.926C269.339 291.741 272.196 289.383 274.904 286.801C275.426 286.379 275.973 285.858 276.445 285.361C279.401 282.482 282.159 279.404 284.693 276.177C285.438 275.258 286.134 274.34 286.78 273.396C288.196 271.485 289.488 269.549 290.73 267.588C291.401 266.495 292.022 265.428 292.643 264.385C294.084 261.804 295.426 259.148 296.668 256.392C301.537 245.47 304.345 233.43 304.643 220.72C304.742 215.532 304.469 210.443 303.724 205.479L303.649 205.528Z" fill="#F7EDE8"/>
<path d="M438.507 315.601C440.515 312.137 439.476 307.786 436.186 305.883C432.897 303.98 428.603 305.246 426.596 308.71C424.588 312.175 425.627 316.526 428.917 318.429C432.206 320.332 436.5 319.066 438.507 315.601Z" fill="#F7EDE8"/>
<path d="M368.187 274.87C370.194 271.405 369.155 267.054 365.866 265.151C362.577 263.249 358.283 264.514 356.276 267.979C354.268 271.443 355.307 275.794 358.596 277.697C361.885 279.6 366.179 278.334 368.187 274.87Z" fill="#F7EDE8"/>
<path d="M415.551 341.364C400.222 332.502 395.353 312.196 404.744 296.011C414.11 279.851 434.135 273.943 449.463 282.805C455.973 286.578 460.594 292.387 463.004 299.065C461.587 276.698 449.836 255.424 429.787 242.516L432.743 227.92C432.793 227.671 433.017 227.522 433.265 227.572L449.488 230.7C449.762 230.75 450.01 230.551 450.01 230.278L451.724 200.291C451.724 200.291 451.6 200.142 451.55 200.291C450.085 206.373 445.638 224.643 445.638 224.643C445.563 224.891 445.315 225.04 445.066 224.966C442.582 224.097 430.88 220.001 428.371 219.132C428.147 219.058 427.899 219.157 427.824 219.38C427.029 221.59 423.65 230.899 421.166 237.8C420.868 237.651 420.57 237.502 420.272 237.378C416.595 235.714 412.843 234.374 409.042 233.406C408.272 233.182 407.527 233.009 406.756 232.835C405.986 232.661 405.241 232.487 404.471 232.338C402.434 231.916 400.372 231.643 398.334 231.42C397.042 231.271 395.751 231.172 394.459 231.097C393.192 231.023 391.875 230.998 390.608 230.998C389.589 230.998 388.596 231.023 387.577 231.072C386.807 231.097 386.061 231.147 385.291 231.221C384.521 231.246 383.776 231.321 383.03 231.445C382.434 231.469 381.838 231.544 381.242 231.618C380.471 231.718 379.701 231.842 378.906 231.966C378.658 231.991 378.385 232.04 378.086 232.115C377.59 232.189 377.093 232.289 376.596 232.388C375.602 232.562 374.583 232.785 373.59 233.033C373.068 233.182 372.521 233.282 372.049 233.431C371.279 233.654 370.534 233.853 369.789 234.076C369.043 234.299 368.298 234.523 367.577 234.771C366.459 235.168 365.366 235.541 364.273 235.963C363.18 236.385 362.112 236.831 361.043 237.303C360.522 237.551 359.975 237.75 359.453 238.048C359.13 238.197 358.807 238.37 358.509 238.544C365.49 237.353 372.72 238.47 379.155 242.169C394.484 251.031 399.303 271.361 389.937 287.522C380.571 303.682 360.546 309.59 345.218 300.728C331.553 292.809 326.212 275.879 331.901 260.836C331.33 261.581 330.808 262.325 330.286 263.095C329.367 264.51 328.498 265.9 327.653 267.365C326.808 268.854 325.988 270.368 325.268 271.883C324.696 273 324.2 274.142 323.728 275.308C323.305 276.301 322.883 277.319 322.485 278.337C322.461 278.486 322.411 278.61 322.336 278.734C322.262 278.957 322.237 279.131 322.162 279.255C321.914 280.025 321.666 280.794 321.392 281.539C320.995 282.731 320.647 283.922 320.324 285.138C320.076 286.082 319.877 287.05 319.653 287.993C319.405 289.061 319.206 290.078 319.007 291.121C318.908 291.816 318.759 292.561 318.659 293.305C318.51 294.249 318.411 295.217 318.312 296.111C318.287 296.557 318.212 297.054 318.163 297.55C318.088 298.543 318.013 299.511 317.989 300.504C317.964 301.522 317.914 302.515 317.914 303.533C317.914 304.551 317.939 305.469 317.989 306.462C318.063 307.951 318.163 309.391 318.312 310.831C318.411 311.948 318.56 313.04 318.709 314.182C318.734 314.505 318.808 314.828 318.858 315.126H318.883V315.225C319.131 316.739 319.405 318.278 319.753 319.792C320.15 321.331 320.523 322.821 320.945 324.31C321.367 325.676 321.79 327.016 322.287 328.332C322.734 329.623 323.28 330.963 323.827 332.229C324.1 332.924 324.423 333.644 324.746 334.314C325.094 335.059 325.442 335.754 325.814 336.499C326.162 337.194 326.51 337.914 326.932 338.609C327.703 340.024 328.522 341.414 329.392 342.754C329.74 343.276 330.063 343.772 330.411 344.293C330.758 344.815 331.106 345.311 331.479 345.808C331.504 345.882 331.553 345.957 331.628 346.031C331.901 346.453 332.224 346.875 332.547 347.272C332.97 347.868 333.392 348.439 333.889 349.01C334.137 349.283 334.336 349.581 334.56 349.854C335.131 350.549 335.727 351.219 336.324 351.89C336.92 352.585 337.566 353.23 338.187 353.9C338.783 354.546 339.379 355.166 340.025 355.762C340.771 356.457 341.516 357.177 342.286 357.847C343.479 358.94 344.746 359.957 346.062 360.975C346.634 361.422 347.23 361.844 347.826 362.266C347.826 362.266 348.05 362.44 348.149 362.514C349.093 363.184 350.062 363.805 351.006 364.45C352.1 365.145 353.193 365.865 354.311 366.486C357.665 368.422 361.068 370.036 364.571 371.376C365.739 371.823 366.931 372.245 368.124 372.642C369.416 373.064 370.733 373.461 372.074 373.809C373.242 374.082 374.36 374.38 375.528 374.628C376.173 374.777 376.795 374.901 377.44 375.025C378.037 375.125 378.683 375.249 379.304 375.348C380.546 375.522 381.813 375.696 383.03 375.844C383.552 375.919 384.124 375.944 384.645 375.993C385.341 376.068 386.061 376.093 386.757 376.142C388.024 376.217 389.266 376.242 390.484 376.242C391.701 376.242 392.943 376.217 394.185 376.142C394.757 376.118 395.303 376.068 395.85 376.043C396.943 375.969 398.036 375.869 399.154 375.72C400.148 375.621 401.167 375.472 402.16 375.298C402.309 375.298 402.434 375.274 402.583 375.224C403.179 375.125 403.775 375 404.371 374.901C405.291 374.678 406.235 374.504 407.179 374.305C407.278 374.281 407.402 374.231 407.502 374.206C408.769 373.883 410.011 373.561 411.278 373.213C412.222 372.94 413.216 372.617 414.16 372.27C414.905 372.022 415.651 371.749 416.371 371.451C417.117 371.178 417.862 370.88 418.582 370.582C419.328 370.309 420.023 369.986 420.769 369.639C421.464 369.316 422.21 368.968 422.93 368.621C423.626 368.273 424.346 367.926 425.017 367.529C426.433 366.784 427.799 365.989 429.141 365.145C429.812 364.723 430.483 364.301 431.153 363.855C431.924 363.333 432.694 362.787 433.439 362.241C434.209 361.72 434.93 361.149 435.65 360.553C436.395 359.982 437.091 359.386 437.836 358.791C438.532 358.195 439.253 357.549 439.923 356.929C440.594 356.308 441.215 355.688 441.861 355.067C442.507 354.446 443.128 353.776 443.774 353.106C444.52 352.336 445.215 351.517 445.886 350.723C446.582 349.904 447.252 349.109 447.923 348.216C449.936 345.634 451.774 342.903 453.463 339.974C454.755 337.715 455.923 335.431 456.942 333.098C446.755 345.559 429.315 349.432 415.601 341.538L415.551 341.364Z" fill="#F7EDE8"/>
</svg>
