<svg width="75" height="112" viewBox="0 0 75 112" fill="none" xmlns="http://www.w3.org/2000/svg">
<path d="M5.61837 84.7924C4.48276 88.9218 5.0563 93.2073 6.93291 97.0202L6.91456 97.0133C6.65761 96.9055 6.41902 96.7931 6.18273 96.6761C5.94643 96.5682 5.71931 96.4489 5.50136 96.3296C5.2536 96.192 5.00812 96.0429 4.76953 95.8846C4.43459 95.6781 4.11799 95.4395 3.81058 95.2032C3.39534 94.8774 3.02139 94.531 2.67498 94.1754C2.5855 94.086 2.5075 94.008 2.41803 93.9185C2.14044 93.6134 1.88579 93.2968 1.6472 92.9595C1.54855 92.8104 1.44072 92.6636 1.34208 92.5145C0.837364 91.7345 0.472594 90.8948 0.245474 90.0345C0.206473 89.8969 0.176649 89.7386 0.146825 89.5894C0.137649 89.5504 0.126178 89.5114 0.117001 89.461C0.0871776 89.2728 0.0573537 89.0847 0.0390005 88.8874C0.0344122 88.8507 0.0321181 88.8209 0.0298239 88.7796C0.00917659 88.5731 0 88.3552 0 88.1464C0 87.9377 0.00917659 87.722 0.0298239 87.5132C0.128472 86.396 0.484065 85.359 1.03695 84.4322C1.31455 83.9688 1.64949 83.5329 2.02573 83.1291C2.12438 83.0305 2.22303 82.9318 2.32168 82.8332C2.4708 82.6841 2.6268 82.5464 2.78509 82.4088C2.94339 82.2711 3.11086 82.1426 3.27834 82.0142C3.29898 81.9981 3.31275 81.9889 3.31275 81.9889C3.53987 81.8215 3.75093 81.6884 3.9987 81.5301C4.01935 81.5163 4.0354 81.5072 4.0354 81.5072C4.28317 81.358 4.51259 81.2433 4.77871 81.1057C5.04483 80.9772 5.3316 80.8579 5.60919 80.7409C5.89596 80.6331 6.18273 80.5344 6.47867 80.4358C6.47867 80.4358 6.50391 80.4266 6.53832 80.4174C6.83426 80.328 7.08203 80.2683 7.38715 80.1972C7.47892 80.1766 7.76339 80.1192 7.76339 80.1192L7.75422 80.1284C6.81591 81.5301 6.08408 83.1016 5.62066 84.7901L5.61837 84.7924Z" fill="#6CB345"/>
<path d="M23.9873 107.362C23.6913 107.332 23.4046 107.284 23.1086 107.234C22.831 107.195 22.5466 107.135 22.269 107.075C22.2483 107.075 22.2185 107.066 22.2001 107.055C22.0419 107.025 21.8744 106.986 21.7069 106.947C21.5486 106.908 21.3811 106.869 21.2228 106.818C20.9659 106.75 20.709 106.681 20.452 106.601C19.4839 106.305 18.5547 105.94 17.6669 105.525C17.41 105.405 17.1622 105.277 16.9167 105.148C16.3845 104.871 15.8706 104.575 15.3751 104.27C15.3154 104.231 15.2672 104.201 15.2076 104.162C14.9805 104.013 14.7533 103.866 14.5354 103.708C14.2486 103.51 13.9619 103.292 13.6866 103.086C13.5375 102.967 13.3998 102.859 13.2622 102.73C12.3537 101.989 11.5232 101.179 10.7822 100.301C10.6239 100.113 10.4656 99.9246 10.3073 99.7273C10.1582 99.5391 10.0113 99.3419 9.86223 99.1446C9.71311 98.9473 9.57546 98.7408 9.43781 98.5412C9.35981 98.4127 9.27034 98.2842 9.19004 98.1649C9.13957 98.0869 9.09139 98.0067 9.05239 97.9378H9.04322V97.9287C8.99275 97.8392 8.94457 97.7612 8.8941 97.6809V97.6717H8.88492C8.79545 97.5042 8.6968 97.3459 8.60733 97.1785C7.91679 95.9327 7.37308 94.6297 7.01749 93.2761C6.95784 93.0696 6.89819 92.8517 6.85919 92.6429C6.79954 92.4066 6.75136 92.1795 6.71007 91.9524C6.71007 91.9318 6.70089 91.9134 6.70089 91.9042C6.66189 91.6863 6.63207 91.4706 6.60224 91.2527C6.56324 91.0164 6.5426 90.7893 6.52424 90.5507C6.49442 90.3144 6.48524 90.0758 6.47377 89.8487C6.4646 89.6124 6.45312 89.3738 6.45312 89.1375C6.45312 87.8138 6.6206 86.4809 6.98537 85.1663C7.11384 84.7121 7.25149 84.267 7.41896 83.8426C7.48779 83.6545 7.56808 83.4663 7.64608 83.2805C7.71491 83.1131 7.7952 82.9456 7.86403 82.7873C7.98332 82.551 8.09115 82.3239 8.21962 82.0967C8.31827 81.9086 8.42609 81.7205 8.53621 81.5347C8.87116 80.9818 9.23822 80.4473 9.64199 79.9448C9.65117 79.9357 9.68099 79.8944 9.68099 79.8944C9.74064 79.8255 9.80029 79.7475 9.86452 79.6718C10.071 79.4287 10.2752 79.2015 10.4908 78.9744C10.5115 78.9538 10.5275 78.9423 10.5596 78.9056C10.7478 78.6991 10.9474 78.5133 11.1515 78.3229C11.3007 78.1852 11.8719 77.6897 12.099 77.513C12.3651 77.2951 12.6519 77.0886 12.9387 76.8913C13.2048 76.7124 13.4824 76.5357 13.7577 76.3568C14.0353 76.1893 14.3198 76.0218 14.6065 75.8727C15.7513 75.2694 16.9878 74.7968 18.2817 74.4595C17.0865 76.366 16.1574 78.4215 15.515 80.5826C15.4944 80.6514 15.4645 80.7203 15.4554 80.7891C15.0011 82.3698 14.6937 83.9986 14.5652 85.6596C14.2395 89.7684 14.9071 93.8084 16.5175 97.5111L16.5221 97.5226C16.552 97.5914 16.5818 97.6717 16.6208 97.7405C17.6784 100.152 19.1398 102.414 20.9567 104.467C21.895 105.513 22.9022 106.493 23.9804 107.362H23.9873Z" fill="#6CB345"/>
<path d="M66.1695 88.674C66.1604 89.0503 66.1397 89.4242 66.1099 89.8097C66.0801 90.1951 66.0411 90.5805 65.9906 90.9659C65.8828 91.7367 65.7543 92.4869 65.5753 93.2279C65.4079 93.9598 65.1991 94.6893 64.9536 95.4005C64.7059 96.1025 64.4306 96.8022 64.1231 97.4744C63.0564 99.8351 61.5835 101.989 59.817 103.866C59.6679 104.024 59.5211 104.182 59.3628 104.329H59.3536C59.2641 104.437 59.1563 104.536 59.037 104.646C58.7801 104.903 58.5048 105.151 58.2272 105.396C57.6743 105.88 57.1008 106.344 56.4997 106.789C55.8963 107.234 55.2838 107.637 54.6437 108.023C54.4074 108.172 54.1597 108.31 53.9119 108.447C53.1801 108.863 52.4299 109.227 51.6499 109.562C51.3035 109.711 50.9479 109.849 50.5923 109.996C49.9407 110.244 49.2685 110.459 48.5964 110.647C48.4977 110.677 48.4082 110.707 48.3188 110.725C47.6374 110.914 46.9469 111.072 46.254 111.2C46.1852 111.221 46.1256 111.221 46.0659 111.239C44.6137 111.496 43.1225 111.634 41.6015 111.634C41.5625 111.643 41.5327 111.643 41.4937 111.643H41.2666C41.0486 111.634 40.8421 111.634 40.6242 111.634C40.209 111.613 39.7937 111.604 39.3808 111.565C35.8248 111.278 32.496 110.292 29.5435 108.741C28.8116 108.365 28.1005 107.952 27.4099 107.507C23.4296 104.91 20.2774 101.255 18.3916 96.9972C18.3572 96.9169 18.3366 96.8756 18.3113 96.8045L18.3022 96.7816C16.8408 93.4138 16.1594 89.6904 16.4737 85.8178C16.593 84.3656 16.8385 82.9525 17.2147 81.6012C17.2354 81.5232 17.2537 81.4521 17.2744 81.3741C17.7974 79.5365 18.5385 77.7975 19.4768 76.1778C19.7819 75.6341 20.1191 75.1111 20.4747 74.5972C22.4591 85.5701 31.3306 94.3727 42.7486 95.9121C43.2235 95.9809 43.6961 96.0314 44.1801 96.0704C44.8913 96.13 45.6025 96.1599 46.3045 96.1599C48.1421 96.1599 49.9499 95.9626 51.6889 95.5863C57.1811 94.4209 62.0791 91.5073 65.7543 87.4375C65.8919 87.2792 66.0319 87.1117 66.1604 86.9534C66.1902 87.527 66.1902 88.089 66.1695 88.6718V88.674Z" fill="#6CB345"/>
<path d="M70.1172 69.9859C70.1172 70.6076 70.0874 71.2317 70.0392 71.8534C69.9406 73.0991 69.7433 74.3219 69.4565 75.4988C69.2982 76.1595 69.1216 76.8133 68.9036 77.4534C68.4494 78.8253 67.8759 80.1398 67.1945 81.3855C66.9972 81.7503 66.7884 82.1174 66.5613 82.4615V82.4707C66.3135 82.8744 66.0474 83.2713 65.7721 83.6453V83.6545C65.5542 83.971 65.3385 84.267 65.0908 84.5629V84.5721C64.726 85.047 64.3406 85.5012 63.946 85.9463C63.6982 86.2239 63.4413 86.49 63.1843 86.747C62.6796 87.2517 62.1474 87.7357 61.5945 88.2083C60.9223 88.7704 60.2318 89.2843 59.4999 89.7684C59.0159 90.0941 58.5226 90.4015 58.0179 90.686C57.7013 90.865 57.3755 91.0416 57.0498 91.2091C56.4969 91.4867 55.9325 91.7413 55.3613 91.9799C55.1732 92.0579 54.9759 92.1382 54.7786 92.207C54.2739 92.4043 53.7508 92.5833 53.2277 92.7393C52.4179 92.9962 51.5874 93.1935 50.7478 93.3518C48.7518 93.7372 46.6779 93.8657 44.565 93.7074C44.4962 93.7074 44.4366 93.7074 44.3677 93.6982C43.9525 93.6684 43.5487 93.6202 43.1427 93.5698C32.5942 92.1772 24.4339 83.9894 22.766 73.8332C22.6766 73.3583 22.6169 72.8857 22.5688 72.4017C22.5481 72.2732 22.5389 72.1447 22.5298 72.0163C22.4609 71.1468 22.4311 70.2681 22.4517 69.3895C22.4609 68.9352 22.4816 68.4901 22.5206 68.0359C22.688 65.9712 23.1125 63.9959 23.764 62.1285C24.6128 63.5302 25.6016 64.8746 26.6982 66.1295C26.985 66.4552 27.2718 66.7718 27.5677 67.077C27.726 67.2353 27.8728 67.3935 28.0311 67.5404C33.3352 72.8651 40.3576 75.8773 47.8961 76.0448C48.1233 76.054 48.3412 76.0539 48.5683 76.0539C50.11 76.0539 51.631 75.9347 53.1314 75.6892C55.8476 75.2648 58.4744 74.4641 60.9338 73.2895C61.5165 73.0234 62.09 72.7274 62.6521 72.3994C64.1249 71.5895 65.5175 70.6421 66.8412 69.5638C67.5317 69.0109 68.1947 68.419 68.8371 67.795C69.2019 67.4394 69.5575 67.0747 69.8947 66.7076C69.9452 66.9645 69.9727 67.2123 69.9934 67.467C70.0828 68.2974 70.1218 69.1371 70.1218 69.9768L70.1172 69.9859Z" fill="#6CB345"/>
<path d="M65.7063 42.5309C65.7402 41.1338 64.6947 39.9752 63.371 39.9431C62.0474 39.911 60.9468 41.0175 60.9129 42.4146C60.879 43.8118 61.9246 44.9704 63.2482 45.0025C64.5719 45.0346 65.6724 43.9281 65.7063 42.5309Z" fill="#5740C0"/>
<path d="M36.4172 41.8215C36.4511 40.4244 35.4056 39.2657 34.0819 39.2336C32.7583 39.2015 31.6578 40.308 31.6239 41.7052C31.59 43.1023 32.6355 44.2609 33.9592 44.293C35.2828 44.3251 36.3833 43.2186 36.4172 41.8215Z" fill="#5740C0"/>
<path d="M74.4646 43.3463C74.0195 49.5795 69.0114 54.4293 63.026 54.271C56.8432 54.1219 51.9728 48.7192 52.1311 42.2015C52.2894 35.6816 57.4145 30.5266 63.5995 30.6735C66.7104 30.7515 69.4863 32.1555 71.4615 34.367C67.7519 27.6773 61.1906 22.7839 53.3883 21.3202L56.5588 13.4306C56.6001 13.3297 56.5381 13.2173 56.4303 13.1966L45.907 11.2787C45.7809 11.2558 45.7235 11.1067 45.8015 11.0057L54.1591 0.126885C54.2164 0.0511783 54.1155 -0.0428818 54.0444 0.0213543L40.6512 12.045C40.5502 12.1344 40.5892 12.2996 40.7177 12.3386L51.6493 15.5091C51.7548 15.539 51.8053 15.6606 51.7525 15.7569L48.9927 20.8683H48.4673C48.0612 20.8683 47.6575 20.8774 47.2629 20.8981C47.2331 20.8981 47.2032 20.9073 47.1734 20.9073C46.7582 20.9279 46.3429 20.9577 45.9392 20.9967C45.9185 20.9967 45.9093 20.9967 45.8887 21.0059C39.8528 21.6093 34.3904 24.2751 30.2724 28.3151C28.7721 29.7764 27.4369 31.4168 26.3219 33.2154C28.3958 31.1415 31.2222 29.8957 34.3124 29.9646C40.486 30.1137 45.3656 35.5164 45.2073 42.0341C45.049 48.554 39.9124 53.7182 33.7389 53.5713C27.7833 53.413 23.0413 48.3957 22.844 42.2015C22.8142 42.3094 22.7935 42.408 22.7752 42.5181C22.548 43.7914 22.4196 45.1059 22.3897 46.4388C22.3117 49.8571 22.8945 53.1354 24.0186 56.1477C24.3535 57.0768 24.7504 57.9646 25.1932 58.8341C26.2691 60.9883 27.6525 62.9636 29.2722 64.7209C29.7172 65.2141 30.1898 65.6982 30.6946 66.1639L30.7037 66.1731C35.2278 70.4012 41.2729 73.0486 47.9603 73.1955C51.842 73.2849 55.5356 72.5233 58.885 71.0711C59.5067 70.8141 60.1101 70.5274 60.702 70.2108C61.8582 69.6074 62.9548 68.9169 64.001 68.1552C64.8315 67.5427 65.6298 66.882 66.3915 66.1593C66.5406 66.04 66.6874 65.8932 66.8251 65.7533C67.6556 64.9434 68.4264 64.0831 69.1353 63.1746C69.3418 62.9177 69.5413 62.6607 69.718 62.3946C70.1126 61.8601 70.4797 61.3187 70.8238 60.7658V60.7566C71.0119 60.4607 71.1885 60.1647 71.356 59.8665C71.7621 59.1461 72.136 58.3936 72.4824 57.6251C73.8452 54.5624 74.6366 51.1854 74.7146 47.618C74.7445 46.1658 74.6642 44.7343 74.4577 43.3417L74.4646 43.3463Z" fill="#6CB345"/>
</svg>
