<svg width="45" height="45" viewBox="0 0 45 45" fill="none" xmlns="http://www.w3.org/2000/svg">
<path d="M22.5051 10.9626C16.1202 10.9626 10.9702 16.1137 10.9702 22.5C10.9702 28.8863 16.1202 34.0375 22.5051 34.0375C28.8899 34.0375 34.0399 28.8863 34.0399 22.5C34.0399 16.1137 28.8899 10.9626 22.5051 10.9626ZM22.5051 30.0009C18.379 30.0009 15.0059 26.6371 15.0059 22.5C15.0059 18.363 18.3689 14.9992 22.5051 14.9992C26.6411 14.9992 30.0042 18.363 30.0042 22.5C30.0042 26.6371 26.6311 30.0009 22.5051 30.0009ZM37.2022 10.4906C37.2022 11.9868 35.9975 13.1817 34.5117 13.1817C33.016 13.1817 31.8213 11.9767 31.8213 10.4906C31.8213 9.00453 33.026 7.79957 34.5117 7.79957C35.9975 7.79957 37.2022 9.00453 37.2022 10.4906ZM44.8419 13.2219C44.6712 9.61704 43.848 6.42392 41.2077 3.7931C38.5775 1.16227 35.3852 0.338893 31.7811 0.15815C28.0666 -0.0527167 16.9334 -0.0527167 13.2189 0.15815C9.62494 0.328853 6.43252 1.15224 3.79225 3.78305C1.15198 6.41388 0.338818 9.607 0.158115 13.2118C-0.0527049 16.9271 -0.0527049 28.0629 0.158115 31.7781C0.328779 35.383 1.15198 38.5761 3.79225 41.207C6.43252 43.8377 9.61489 44.6611 13.2189 44.8419C16.9334 45.0527 28.0666 45.0527 31.7811 44.8419C35.3852 44.6712 38.5775 43.8478 41.2077 41.207C43.838 38.5761 44.6612 35.383 44.8419 31.7781C45.0527 28.0629 45.0527 16.9371 44.8419 13.2219ZM40.0432 35.7646C39.2602 37.7326 37.7443 39.2489 35.7666 40.0421C32.8051 41.217 25.7778 40.9459 22.5051 40.9459C19.2324 40.9459 12.1949 41.207 9.24346 40.0421C7.2758 39.2589 5.75991 37.7427 4.96682 35.7646C3.79225 32.8024 4.06331 25.7735 4.06331 22.5C4.06331 19.2265 3.80229 12.1877 4.96682 9.23548C5.74986 7.26738 7.26576 5.75115 9.24346 4.95788C12.205 3.78305 19.2324 4.05417 22.5051 4.05417C25.7778 4.05417 32.8151 3.7931 35.7666 4.95788C37.7343 5.7411 39.2501 7.25734 40.0432 9.23548C41.2178 12.1976 40.9467 19.2265 40.9467 22.5C40.9467 25.7735 41.2178 32.8124 40.0432 35.7646Z" fill="#FDFBFA"/>
</svg>
