<svg width="45" height="33" viewBox="0 0 45 33" fill="none" xmlns="http://www.w3.org/2000/svg">
<path d="M4.21875 0C1.88965 0 0 1.84766 0 4.125C0 5.42266 0.624023 6.64297 1.6875 7.425L20.8125 21.45C21.8145 22.1805 23.1855 22.1805 24.1875 21.45L43.3125 7.425C44.376 6.64297 45 5.42266 45 4.125C45 1.84766 43.1104 0 40.7812 0H4.21875ZM0 9.625V27.5C0 30.5336 2.52246 33 5.625 33H39.375C42.4775 33 45 30.5336 45 27.5V9.625L25.875 23.65C23.8711 25.1195 21.1289 25.1195 19.125 23.65L0 9.625Z" fill="#F7EDE8"/>
</svg>
