<svg width="533" height="264" viewBox="0 0 533 264" fill="none" xmlns="http://www.w3.org/2000/svg">
<path opacity="0.4" d="M47.0949 194.922C47.0949 186.208 48.3368 178.9 50.4225 171.773C53.214 162.23 57.4067 153.463 63.7434 145.89C67.8989 140.922 72.7178 136.804 78.7997 134.347C87.1426 130.982 96.3664 133.789 101.896 141.548C106.153 147.514 108.159 154.312 109.119 161.455C110.616 172.563 109.337 183.326 106.36 193.792C103.839 202.655 100.14 210.838 94.7052 217.955C90.9159 222.923 86.5535 227.232 80.981 229.949C74.4585 233.134 67.7397 233.532 60.9412 229.084C56.6318 226.266 53.7606 222.174 51.659 217.515C48.1988 209.83 47.0524 201.891 47.0949 194.922Z" fill="#CCCCCC" stroke="black" stroke-width="0.3" stroke-linecap="round" stroke-linejoin="round"/>
<path opacity="0.1" d="M78.3161 184.117C77.6527 185.953 77.1485 187.513 76.5329 189.026C75.6732 191.138 74.6329 193.139 72.9877 194.705C72.2076 195.442 71.2788 195.925 70.1962 195.681C67.2507 195.028 65.372 196.504 63.886 198.664C62.3841 200.845 61.5721 203.424 60.5 205.85C59.4068 208.317 58.34 210.791 56.3127 212.6C55.039 213.741 53.553 214.437 51.9608 214.994C51.0427 215.312 50.5438 214.978 50.2148 214.007C48.0654 207.649 47.0624 201.217 47.1367 194.689C47.1473 193.495 47.678 193.272 48.7023 193.994C49.4293 194.508 50.114 195.108 50.8145 195.665C51.8122 196.461 52.7994 196.525 53.8502 195.952C56.3286 194.599 58.5629 192.874 60.8397 191.207C62.193 190.22 63.6259 189.44 65.3295 189.387C68.5669 189.281 71.2894 188.071 73.7254 186.081C74.8771 185.136 76.2092 184.43 77.2918 183.321C76.7452 182.817 76.1243 182.801 75.5776 182.599C72.7701 181.548 71.0719 179.123 71.0241 176.087C70.9923 174.118 71.3956 172.218 71.4062 170.249C71.4221 166.826 70.1219 164.327 66.9376 162.931C66.4281 162.708 65.9345 162.448 65.441 162.183C63.541 161.158 62.2355 159.662 61.6251 157.502C60.9777 155.209 60.7548 152.895 60.7017 150.565C60.6911 150.072 60.845 149.658 61.1104 149.286C64.6131 144.457 68.6465 140.179 73.6936 136.968C74.0916 136.719 74.5587 136.183 74.9991 136.485C75.5352 136.857 75.2167 137.536 75.0681 138.035C74.479 140.015 73.8634 141.989 73.2053 143.942C72.5791 145.81 72.8657 147.705 73.2053 149.615C73.2531 149.891 73.3115 150.172 73.3964 150.443C75.3653 156.833 76.1083 163.302 75.7952 169.91C75.6148 173.763 77.2016 177.472 78.0879 181.4C78.5921 181.065 78.5762 180.63 78.6505 180.264C79.2236 177.441 80.1046 174.75 81.4473 172.255C82.5512 170.202 83.9948 168.726 86.4944 168.567C88.4634 168.44 89.7901 167.081 90.9046 165.553C91.9077 164.189 92.4649 162.565 93.0169 160.946C93.9244 158.282 94.7735 155.591 95.7182 152.943C97.0025 149.345 99.5022 146.893 102.66 145.04C103.578 144.504 104.003 144.791 104.448 145.683C106.953 150.677 108.392 155.978 109.14 161.482C109.241 162.236 109.352 162.989 109.389 163.743C109.442 164.741 108.933 165.091 108.015 164.857C107.882 164.825 107.744 164.778 107.633 164.698C104.836 162.788 102.554 163.387 100.452 165.738C98.9556 167.421 97.1777 168.827 95.6333 170.462C94.211 171.974 92.5923 173.158 90.634 173.71C87.3807 174.628 84.8439 176.591 82.5565 178.98C81.6278 179.946 80.6406 180.853 79.6907 181.798C79.4784 182.01 79.1334 182.201 79.2502 182.573C79.3722 182.971 79.7809 182.875 80.0781 182.96C83.2677 183.82 85.2207 185.996 85.64 189.196C85.7886 190.337 85.4807 191.425 85.4011 192.539C85.3375 193.468 85.2472 194.397 85.1942 195.326C84.9713 199.009 86.3246 201.784 89.8167 203.313C93.6962 205.001 95.0442 208.238 95.5909 212.266C95.9942 215.243 95.4051 217.478 93.4998 219.579C90.1829 223.236 86.7757 226.712 82.4981 229.137C82.1373 229.344 81.7498 229.817 81.304 229.413C80.8954 229.042 81.1607 228.516 81.2934 228.097C81.7764 226.574 82.2593 225.046 82.8059 223.549C83.6445 221.251 83.7719 218.868 83.2252 216.39C82.8909 214.861 82.6361 213.306 82.1903 211.804C81.0599 208.02 80.4496 204.21 80.8105 200.357C81.304 195.087 79.9932 189.987 78.6611 184.886C78.6186 184.717 78.5178 184.563 78.3161 184.128V184.117Z" fill="black" stroke="black" stroke-width="0.3" stroke-linecap="round" stroke-linejoin="round"/>
<path opacity="0.9" d="M84.7546 180.582C84.5158 185.067 83.3482 189.111 79.7818 191.796C76.8947 193.972 73.3071 192.688 71.8423 189.116C69.7354 183.974 72.0068 176.082 76.3852 173.285C79.198 171.491 82.6954 172.797 84.0116 176.13C84.5848 177.573 84.7811 179.059 84.7546 180.588V180.582Z" fill="#B3B3B3"/>
<path d="M78.4261 181.761C78.4474 183.905 77.3169 184.823 75.4913 184.101C72.5193 182.923 69.4199 182.275 66.4426 181.134C64.7284 180.476 64.2614 179.569 64.739 177.886C65.1901 176.294 66.0233 175.848 67.7269 176.469C70.8847 177.626 74.0265 178.858 77.1736 180.052C78.0175 180.37 78.4367 180.98 78.4261 181.761Z" fill="#333333" stroke="black" stroke-width="0.3" stroke-linecap="round" stroke-linejoin="round"/>
<path opacity="0.4" d="M297.286 173.094C286.369 173.174 275.447 173.073 264.546 172.553C252.201 171.964 239.862 171.098 227.539 169.904C206.947 167.914 186.451 164.9 166.061 160.941C143.06 156.477 120.282 150.671 97.8857 143.109C85.4299 138.905 73.1544 134.102 61.1603 128.519C51.3474 123.955 41.7521 118.892 32.645 112.959C26.234 108.782 20.1308 104.154 14.5371 98.8577C11.1299 95.6362 8.07827 92.1123 5.54676 88.2965C2.83481 84.21 0.727875 79.7361 0.271461 74.7155C-0.142496 70.1832 0.478439 65.9587 2.28287 61.8563C5.48307 54.5855 10.907 49.2465 17.0686 44.4701C23.9625 39.1205 31.6261 35.0499 39.5655 31.4092C50.0153 26.6116 60.8949 22.9868 71.9497 19.776C87.4943 15.2649 103.32 11.9798 119.258 9.27844C131.485 7.20335 143.777 5.56875 156.116 4.27381C167.908 3.03724 179.711 2.06604 191.546 1.40264C204.241 0.691487 216.941 0.373058 229.651 0.182001C237.708 0.0599369 245.753 0.319987 253.799 0.410208C266.191 0.548194 278.573 1.24874 290.933 2.14034C306 3.2283 321.04 4.69307 336.038 6.59303C352.66 8.69996 369.203 11.3164 385.671 14.4582C401.566 17.4886 417.328 21.1399 432.888 25.5342C446.363 29.3341 459.642 33.7284 472.575 39.0462C482.155 42.9841 491.516 47.3413 500.422 52.537C507.268 56.5332 513.796 61.0018 519.49 66.447C522.818 69.6259 525.88 73.0915 528.205 77.1886C530.386 81.0363 531.553 85.1281 532.095 89.4747C532.36 91.5922 531.564 93.6991 531.394 95.8167C531.251 97.5256 530.481 99.0434 529.871 100.641C527.918 105.757 524.601 110.045 520.87 113.914C517.367 117.544 513.483 120.84 509.322 123.807C502.539 128.641 495.385 132.776 487.982 136.395C479.915 140.333 471.62 143.708 463.203 146.739C447.706 152.322 431.912 156.557 415.99 160.102C405.567 162.421 395.075 164.358 384.551 165.982C373.13 167.744 361.677 169.114 350.219 170.318C345.209 170.844 340.189 171.21 335.173 171.56C322.553 172.441 309.922 172.945 297.28 173.094H297.286Z" fill="#CCCCCC" stroke="black" stroke-width="0.3" stroke-linecap="round" stroke-linejoin="round"/>
<path opacity="0.1" d="M100.622 143.676C102.867 142.806 105.123 142.716 107.346 142.62C115.509 142.27 123.698 142.488 131.871 142.344C136.477 142.265 141.079 142.047 145.659 141.596C151.985 140.97 157.658 138.438 163.183 135.419C170.841 131.237 178.08 126.274 185.51 121.631C190.26 118.659 195.408 116.859 200.741 115.501C208.203 113.596 215.649 111.579 223.138 109.748C231.104 107.8 238.518 104.515 245.491 99.9881C251.287 96.2306 257.13 92.5422 262.808 88.5724C263.18 88.3124 263.536 88.0258 263.838 87.5004C262.235 87.7817 260.627 88.0629 259.024 88.3389C249.19 90.0425 239.303 91.2154 229.347 91.6824C224.284 91.9159 219.216 92.2184 214.153 92.0115C204.563 91.624 194.962 91.2419 185.611 88.4238C182.633 87.5269 179.746 86.3434 176.907 85.0538C167.508 80.7815 157.653 78.4676 147.622 76.8808C141.291 75.883 134.912 75.4532 128.532 75.4372C119.983 75.416 111.454 75.8247 102.941 76.4297C95.6441 76.9498 88.3415 77.316 81.0389 77.7193C74.32 78.0908 67.5906 78.181 60.8505 77.9581C48.193 77.5336 35.6946 75.5646 23.2706 72.8261C16.2917 71.2871 9.37122 69.4614 2.46133 67.6198C0.667511 67.1422 0.593211 67.052 0.91164 65.2953C1.01248 64.7274 1.20353 64.1649 1.43174 63.6342C3.39538 59.0913 5.94281 54.9358 9.39776 51.3269C14.015 46.508 19.3221 42.586 25.0061 39.0515C29.4216 36.3077 34.0813 34.0681 38.7463 31.786C39.4786 31.4251 40.1739 31.3667 40.9699 31.5472C45.0193 32.4547 48.2407 34.8482 51.2499 37.6133C56.1165 42.0819 61.3281 45.9455 67.7604 47.6809C71.7142 48.7476 75.7211 49.5756 79.7386 50.3239C97.8572 53.7045 116.071 56.4589 134.285 59.1284C147.543 61.0708 160.444 64.5205 173.16 68.8617C187.893 73.8876 202.901 77.4646 218.213 79.6246C231.364 81.4821 244.488 83.5572 257.629 85.4731C259.46 85.7384 261.296 85.9666 263.233 85.9136C262.442 85.5261 261.651 85.1546 260.866 84.7566C255.002 81.7899 249.238 78.6481 244.557 73.6806C243.517 72.582 242.689 71.3189 242.089 69.886C240.863 66.9724 241.612 64.0534 244.069 62.2384C246.261 60.6144 248.776 59.8077 251.318 59.0913C256.35 57.6742 261.492 56.7349 266.428 54.9092C269.522 53.7629 272.483 52.33 275.116 50.2177C278.518 47.4845 278.741 44.4329 275.848 41.0098C273.067 37.7141 269.671 35.2144 266.354 32.6139C263.143 30.0983 259.815 27.742 257.018 24.6798C256.297 23.8837 255.601 23.0452 254.991 22.1482C252.635 18.7039 253.399 14.7925 256.854 11.6985C261.174 7.82427 266.327 5.53689 271.21 2.70288C274.707 0.675553 278.263 1.46632 281.813 1.60961C286.871 1.81128 291.923 2.22524 296.971 2.64981C306.523 3.4565 316.076 4.29502 325.613 5.35645C338.616 6.79999 351.576 8.59381 364.493 10.6901C375.888 12.537 387.266 14.5378 398.533 17.1277C398.868 17.202 399.377 17.1383 399.393 17.6159C399.409 18.0405 398.937 18.1732 398.608 18.2953C396.368 19.1179 394.038 19.5106 391.698 19.7706C384.634 20.5402 377.554 21.1558 370.496 21.9678C364.387 22.6683 358.215 23.1513 352.377 25.444C348.402 27.0043 345.17 29.8224 342.002 32.7201C337.326 36.9976 333.048 41.7263 328.718 46.3966C325.751 49.5968 322.222 51.7462 318.337 53.3648C311.284 56.305 304.109 58.879 296.944 61.4529C289.769 64.0322 283.745 68.3151 278.353 73.8663C274.734 77.5919 271.146 81.3388 267.718 85.2608C267.542 85.4624 267.266 85.6217 267.389 86.0781C268.27 86.2904 269.135 85.9189 269.994 85.765C280.131 83.9287 290.326 82.6284 300.595 81.9438C307.059 81.5139 313.529 81.1849 319.998 81.3706C328.548 81.6148 337.098 81.9544 345.441 84.1569C350.191 85.4094 354.643 87.5269 359.229 89.257C367.131 92.2397 375.346 93.7363 383.652 94.8189C392.197 95.9281 400.794 95.8273 409.392 95.3125C417.888 94.8083 426.359 93.8053 434.824 92.8022C441.622 91.9955 448.426 91.1995 455.245 90.6369C460.531 90.2017 465.812 89.7506 471.103 89.6339C485.348 89.326 499.401 90.7006 513.316 93.0463C518.666 93.9486 523.989 94.9675 529.317 95.9281C531.414 96.3049 531.599 96.7083 530.745 98.7515C528.776 103.454 526.276 107.832 522.832 111.727C518.077 117.114 512.552 121.524 506.693 125.627C501.9 128.986 496.763 131.64 491.711 134.495C490.984 134.909 490.257 134.967 489.476 134.84C485.873 134.235 482.954 132.335 480.21 130.074C477.084 127.506 474.043 124.82 470.376 122.952C465.462 120.447 460.086 119.651 454.699 118.887C437.997 116.525 421.158 114.938 404.355 112.943C394.367 111.754 384.305 110.931 374.545 108.262C364.997 105.651 355.471 102.896 345.95 100.094C336.748 97.3876 327.343 95.7689 317.875 94.4315C304.517 92.5422 291.159 90.621 277.801 88.652C274.93 88.2275 272.059 87.8347 269.188 87.4367C268.8 87.3836 268.392 87.2456 267.834 87.5853C268.397 87.9568 268.88 88.2699 269.357 88.5937C273.226 91.2101 277.048 93.8955 279.903 97.8175C281.023 99.3565 281.967 101.018 282.195 102.992C282.615 106.611 280.948 109.111 278.199 110.915C274.803 113.144 270.95 113.887 267.118 114.636C262.087 115.612 257.002 116.281 252.019 117.534C247.333 118.712 242.79 120.283 238.587 122.846C234.85 125.123 233.975 128.132 235.997 132.192C237.7 135.61 240.317 138.279 242.636 141.182C244.345 143.321 246.07 145.438 247.211 148.012C248.729 151.441 248.336 154.073 245.82 156.7C243.156 159.481 239.839 161.169 236.49 162.74C231.231 165.208 225.743 167.007 220.282 168.843C218.738 169.363 217.209 168.891 215.702 168.705C199.038 166.64 182.4 164.178 165.863 160.925C150.308 157.862 134.843 154.169 119.5 149.854C113.55 148.182 107.659 146.229 101.747 144.388C101.408 144.281 101.026 144.228 100.622 143.676Z" fill="black" stroke="black" stroke-width="0.3" stroke-linecap="round" stroke-linejoin="round"/>
<path opacity="0.9" d="M263.216 78.8869C270.518 79.0833 277.757 79.6989 284.646 82.5966C285.617 83.0052 286.493 83.6156 287.422 84.0985C291.073 85.9985 290.441 91.7726 287.347 93.4921C284.561 95.0365 281.631 95.9281 278.601 96.4801C268.82 98.2579 259.14 97.7962 249.619 94.6703C247.793 94.0706 246.121 93.11 244.487 92.0486C240.931 89.7347 240.915 84.0083 245.14 82.0553C248.855 80.341 252.745 79.6299 256.709 79.2053C258.869 78.9771 261.034 78.8073 263.216 78.8869Z" fill="#CCCCCC"/>
<path d="M263.199 98.9585C263.204 96.4005 263.353 93.8477 263.374 91.2897C263.385 90.1752 263.884 89.6976 264.839 89.6392C265.423 89.602 266.017 89.5861 266.601 89.6445C268.108 89.7984 268.442 90.2177 268.426 91.8629C268.304 103.687 268.182 115.511 268.044 127.336C268.012 130.037 267.917 132.738 267.816 135.44C267.784 136.347 267.784 137.313 266.771 137.748C265.592 138.253 264.457 138.168 263.395 137.446C262.833 137.058 262.854 136.369 262.854 135.737C262.849 132.744 262.854 129.751 262.854 126.757C262.928 125.956 263.172 117.799 263.209 98.9585H263.199Z" fill="#333333" stroke="black" stroke-width="0.3" stroke-linecap="round" stroke-linejoin="round"/>
<path d="M265.542 111.239C266.529 111.345 267.389 111.372 268.195 111.738C268.954 112.083 269.485 112.635 269.618 113.527C269.867 115.193 270.074 116.865 270.339 118.526C270.557 119.885 269.814 120.458 268.795 120.85C268.349 121.026 268.078 120.914 267.818 120.431C266.921 118.754 264.114 118.712 263.185 120.368C262.941 120.803 262.686 120.893 262.31 120.76C261.567 120.495 260.686 120.15 260.728 119.205C260.839 116.944 261.094 114.636 262.007 112.603C262.67 111.128 264.332 111.393 265.531 111.245L265.542 111.239Z" fill="#666666" stroke="black" stroke-width="0.3" stroke-linecap="round" stroke-linejoin="round"/>
<path d="M265.643 101.283C264.894 101.341 264.013 101.235 263.456 102.185C263.037 102.896 262.602 102.498 262.283 102.058C261.646 101.188 262.055 99.3831 263.016 98.9585C264.947 98.1041 266.895 98.1837 268.79 99.0859C269.782 99.5582 270.026 101.548 269.22 102.302C268.88 102.62 268.535 102.859 268.079 102.318C267.224 101.315 267.044 101.288 265.648 101.278L265.643 101.283Z" fill="#666666" stroke="black" stroke-width="0.3" stroke-linecap="round" stroke-linejoin="round"/>
<path d="M279.516 263.13C278.369 263.22 277.244 262.88 276.161 262.344C275.472 262.005 274.787 261.612 275.068 260.635C275.355 259.643 276.14 258.926 277.032 259.303C280.168 260.625 282.779 258.857 285.507 257.807C286.94 257.255 286.983 256.878 286.043 255.636C279.139 246.476 271.183 238.446 262.358 231.329C261.758 230.846 260.548 230.607 260.983 229.376C261.312 228.447 263.488 227.837 264.385 228.336C265.022 228.692 265.621 229.143 266.2 229.604C275.137 236.753 282.854 245.165 289.615 254.548C290.257 255.44 290.841 255.556 291.791 255.195C308.148 248.975 324.51 242.618 340.861 236.111C342.57 235.432 344.273 234.721 345.961 233.967C347.346 233.346 347.442 232.964 346.402 231.818C342.878 227.938 339.375 224.016 335.75 220.216C331.202 215.445 326.723 210.573 321.766 206.221C320.237 204.873 323.337 202.618 325.598 204.687C330.459 209.14 334.965 213.954 339.354 218.884C342.973 222.949 346.539 227.057 350.117 231.133C350.499 231.563 350.817 231.573 351.273 231.191C357.876 225.704 363.766 219.627 366.632 210.998C367.036 209.788 367.471 208.402 369.164 208.731C370.241 208.938 370.74 209.528 370.369 210.748C368.129 218.083 364.77 224.653 358.677 229.387C356.634 230.968 354.681 232.683 352.706 234.36C351.199 235.639 349.411 236.281 347.665 236.987C339.327 240.362 330.947 243.568 322.631 246.927C310.005 252.027 297.188 256.48 284.717 261.861C283.077 262.567 281.384 263.161 279.51 263.14L279.516 263.13Z" fill="#666666" stroke="black" stroke-width="0.3" stroke-linecap="round" stroke-linejoin="round"/>
<path d="M175.394 234.413C175.394 234.795 175.367 235.182 175.394 235.564C175.49 236.79 174.964 237.39 173.834 237.597C170.814 238.165 167.752 238.345 164.695 238.589C161.335 238.86 158.146 238.101 154.935 236.971C146.284 233.919 137.602 230.942 128.935 227.885C128.176 227.614 127.279 227.497 127.258 226.293C127.237 225.088 127.985 224.685 128.893 224.425C132.894 223.278 136.896 222.121 140.903 220.964C142.198 220.593 143.487 220.779 144.782 221.224C154.192 224.472 163.612 227.662 173.027 230.83C175.426 231.637 175.442 231.69 175.394 234.413Z" fill="#CCCCCC" stroke="black" stroke-width="0.3" stroke-linecap="round" stroke-linejoin="round"/>
<path d="M90.1252 237.257C86.1024 236.923 83.2524 236.87 80.4662 235.761C78.7307 235.071 77.3827 233.983 76.6026 232.189C70.5683 218.3 65.845 204.13 63.0322 189.482C62.268 185.513 62.5811 181.681 63.7911 177.966C64.5819 175.535 65.7017 175.063 67.9785 176.326C69.7988 177.334 71.2848 178.815 72.7071 180.338C79.0545 187.137 84.8499 194.45 90.8098 201.641C91.781 202.814 92.7097 204.035 93.7287 205.16C96.1222 207.803 98.0169 210.748 99.4604 214.033C100.453 216.294 100.601 216.273 102.809 215.838C108.254 214.76 113.535 213.12 118.853 211.55C129.403 208.434 140.049 205.531 150.6 202.22C159.856 199.311 169.138 196.387 178.011 192.216C187.32 187.843 195.472 181.893 202.18 173.641C204.016 171.385 204.781 168.986 205.2 166.221C205.747 162.607 206.548 159.067 208.193 155.819C210.305 151.648 213.866 149.244 217.714 147.238C223.112 144.425 228.811 142.387 234.511 140.37C244.818 136.719 255.336 133.874 265.999 131.582C268.127 131.125 270.265 130.722 272.463 130.923C272.983 130.971 273.535 130.775 274.055 130.626C283.523 127.951 293.086 125.733 302.851 124.714C307.548 124.221 312.282 124.194 316.899 125.346C324.064 127.134 331.229 128.965 338.186 131.481C344.146 133.635 349.077 137.478 353.434 142.18C355.726 144.653 357.918 147.216 360.062 149.822C360.497 150.348 361.071 150.597 361.633 150.878C363.745 151.934 365.794 153.086 367.646 154.599C371.727 157.931 373.197 162.639 373.84 167.845C374.254 171.199 374.726 174.543 374.821 177.929C375.007 184.403 372.89 189.928 368.246 194.466C364.918 197.714 360.917 199.598 356.926 201.551C345.08 207.352 333.267 213.195 321.241 218.449C307.766 224.329 294.153 229.626 279.855 232.502C270.212 234.439 260.527 235.702 250.735 236.169C238.789 236.737 226.832 236.838 214.875 236.812C205.635 236.79 196.401 236.812 187.172 236.907C176.361 237.013 165.556 237.178 154.756 237.294C142.512 237.427 130.274 237.528 118.041 237.539C108.339 237.549 98.6431 237.597 90.1092 237.241L90.1252 237.257Z" fill="#5740C0" stroke="black" stroke-width="0.3" stroke-linecap="round" stroke-linejoin="round"/>
<path d="M94.329 218.507C95.7885 219.049 96.9561 219.463 98.113 219.908C98.5747 220.083 99.1957 220.232 99.0842 220.917C98.9781 221.543 98.3678 221.617 97.8901 221.474C95.3427 220.699 92.8006 219.871 90.3699 218.682C89.9984 218.502 89.6587 218.168 89.7277 217.669C89.7861 217.249 90.1045 217.032 90.4601 216.973C93.7771 216.432 97.0357 215.296 100.533 216.777C102.237 217.499 103.993 218.072 105.718 218.735C106.228 218.932 106.88 219.155 106.726 219.887C106.562 220.683 105.856 220.593 105.288 220.407C103.627 219.866 101.966 219.298 100.331 218.656C98.4102 217.902 96.5262 217.78 94.329 218.513V218.507Z" fill="#5740C0" stroke="black" stroke-width="0.3" stroke-linecap="round" stroke-linejoin="round"/>
<path d="M226.198 192.99C226.272 186.229 227.169 179.553 227.912 172.86C228.199 170.276 228.682 167.713 228.83 165.123C229.207 158.6 232.784 154.694 238.097 152.502C244.927 149.679 252.097 147.949 259.24 146.176C264.218 144.94 269.218 143.767 274.26 142.822C276.175 142.461 278.102 142.18 280.028 142.918C282.188 143.74 282.905 144.987 282.332 147.37C280.58 154.636 279.132 161.954 278.314 169.406C278.028 172.006 278.086 174.612 278.134 177.223C278.229 182.344 276.457 185.444 271.993 187.498C268.04 189.318 263.873 190.523 259.808 192.014C251.847 194.938 243.876 197.793 235.905 200.601C234.27 201.174 232.599 201.583 230.837 201.238C227.833 200.649 226.41 198.988 226.209 195.734C226.15 194.821 226.198 193.903 226.198 192.985V192.99Z" fill="#333333" stroke="black" stroke-width="0.3" stroke-linecap="round" stroke-linejoin="round"/>
<path d="M374.422 183.109C370.749 179.85 366.414 178.412 362.157 176.83C352.785 173.354 342.988 171.73 333.106 170.488C324.45 169.406 315.778 168.482 307.016 168.631C305.594 168.652 305.408 168.408 305.769 166.901C307.653 159.051 311.511 152.386 316.924 146.76C319.939 143.629 323.675 142.116 327.931 142.148C330.065 142.164 332.182 142.302 334.273 142.684C343.779 144.414 353.077 146.861 361.865 151.011C363.914 151.977 365.856 153.15 367.639 154.599C371.774 157.958 373.212 162.734 373.859 167.978C374.263 171.236 374.64 174.49 374.836 177.775C374.942 179.542 374.724 181.262 374.417 183.103L374.422 183.109Z" fill="#333333" stroke="black" stroke-width="0.3" stroke-linecap="round" stroke-linejoin="round"/>
<path d="M305.242 172.908C305.204 169.936 305.21 169.899 307.932 169.995C315.575 170.271 323.153 171.21 330.732 172.059C336.883 172.749 343.002 173.63 349.057 174.898C350.772 175.259 350.888 175.445 349.991 176.974C345.799 184.09 340.285 189.7 333.147 193.404C332.717 193.627 332.308 193.755 331.841 193.622C325.377 191.754 318.828 190.103 312.905 186.595C307.725 183.523 305.316 179.261 305.242 172.914V172.908Z" fill="#333333" stroke="black" stroke-width="0.3" stroke-linecap="round" stroke-linejoin="round"/>
<path d="M177.333 192.561C175.098 194.015 174.117 196.376 173.257 198.696C171.081 204.576 169.282 210.6 168.438 216.904C168.045 219.834 168.109 222.817 168.884 225.757C169.807 229.281 171.914 231.695 175.061 233.134C178.06 234.503 181.186 235.416 184.312 236.323C184.641 236.419 185.028 236.36 185.272 236.689C185.108 237.093 184.794 236.992 184.55 236.997C178.129 237.093 171.707 237.13 165.285 237.183C161.937 237.21 158.843 236 155.812 234.577C153.318 233.404 152.336 231.074 151.943 228.426C151.312 224.17 151.773 220.036 152.83 215.992C153.801 212.255 154.968 208.588 156.216 204.942C157.341 201.652 159.352 199.502 162.526 198.414C166.018 197.215 169.446 195.83 172.891 194.476C174.392 193.887 175.852 193.203 177.333 192.561Z" fill="#333333" stroke="black" stroke-width="0.3" stroke-linecap="round" stroke-linejoin="round"/>
<path d="M351.654 176.862C352.137 176.055 352.625 175.657 353.538 175.928C359.827 177.796 366.02 179.877 371.71 183.241C374.029 184.61 374.183 185.247 373.026 187.795C371.264 191.669 368.515 194.63 365.214 197.034C362.597 198.94 359.646 199.359 356.6 199.2C350.327 198.865 344.319 197.215 338.333 195.464C327.029 192.147 339.538 197.045 351.659 176.862H351.654Z" fill="#333333" stroke="black" stroke-width="0.3" stroke-linecap="round" stroke-linejoin="round"/>
<path d="M318.24 136.369C314.88 136.512 312.174 137.117 309.478 137.775C308.284 138.067 307.079 138.247 305.848 138.263C303.555 138.295 302.058 137.016 301.214 134.941C300.349 132.818 301.013 130.865 302.451 129.22C304.643 126.72 307.546 126.046 310.566 125.659C316.536 124.895 322.172 126.428 327.702 128.376C330.828 129.475 332.972 132.107 335.042 134.702C335.711 135.541 336.364 136.39 337.016 137.239C337.239 137.526 337.637 137.801 337.473 138.205C337.255 138.741 336.751 138.47 336.38 138.428C332.479 137.961 328.578 137.441 324.672 136.984C322.342 136.714 319.996 136.538 318.234 136.369H318.24Z" fill="#333333" stroke="black" stroke-width="0.3" stroke-linecap="round" stroke-linejoin="round"/>
<path d="M331.005 129.453C342.315 131.459 350.796 138.152 357.753 147.338C354.5 145.147 350.806 144.006 347.245 142.535C345.234 141.708 343.233 140.848 341.174 140.163C339.746 139.686 338.786 138.767 338.005 137.488C336.116 134.4 334.062 131.459 331 129.453H331.005Z" fill="#333333" stroke="black" stroke-width="0.3" stroke-linecap="round" stroke-linejoin="round"/>
<path d="M234.414 222.811C243.224 219.001 251.991 216.22 261.475 219.059C263.046 219.531 265.004 219.696 265.864 221.113C266.926 222.864 268.141 222.339 269.468 222.296C273.846 222.169 278.166 222.567 282.269 224.313C283.234 224.727 284.609 225.056 284.567 226.415C284.529 227.63 283.256 228.039 282.3 228.453C277.869 230.369 273.252 231.611 268.597 232.651C267.106 232.985 265.636 232.332 264.198 231.961C254.602 229.493 245.039 226.823 235.667 223.384C235.29 223.246 234.929 223.05 234.414 222.811ZM258.233 227.519C258.211 227.662 258.19 227.805 258.169 227.954C259.809 228.437 261.475 228.83 263.078 229.413C266.034 230.485 268.948 230.804 271.898 229.382C272.801 228.946 273.809 228.777 274.732 228.389C275.656 228.002 277.131 227.896 277.041 226.595C276.956 225.375 275.513 225.306 274.541 225.019C268.746 223.289 263.529 225.741 258.227 227.524L258.233 227.519ZM243.887 223.215C243.882 223.363 243.877 223.507 243.871 223.655C246.599 224.488 249.327 225.332 252.066 226.128C252.384 226.218 252.787 226.102 253.122 225.99C254.889 225.406 256.662 224.839 258.392 224.154C259.193 223.836 260.477 223.729 260.451 222.604C260.424 221.405 259.124 221.352 258.264 221.049C253.101 219.224 248.547 221.591 243.882 223.215H243.887Z" fill="#333333" stroke="black" stroke-width="0.3" stroke-linecap="round" stroke-linejoin="round"/>
<path d="M337.446 203.334C335.939 204.523 334.406 205.011 332.665 204.433C329.576 203.398 326.004 202.941 318.999 206.863C316.552 208.652 314.175 207.888 311.739 207.161C310.783 206.874 310.874 206.428 302.223 196.456C301.554 195.681 301.634 195.373 302.536 194.986C303.762 194.461 304.887 194.37 306.198 194.758C312.28 196.562 318.399 198.213 324.508 199.879C324.853 199.975 325.298 200.139 325.559 199.985C327.209 199.035 331.534 200.267 330.993 201.094C330.584 201.721 331.375 201.673 331.662 201.747C333.233 202.161 334.825 202.501 336.401 202.888C336.735 202.968 337.128 202.909 337.441 203.334H337.446ZM310.38 198.658C310.327 198.775 310.269 198.897 310.216 199.014C311.84 200.787 313.458 202.565 315.082 204.332C315.273 204.539 315.512 204.778 315.788 204.65C317.677 203.785 319.551 202.894 321.43 202.002C321.398 201.869 321.366 201.737 321.334 201.599C317.683 200.627 314.031 199.646 310.375 198.653L310.38 198.658Z" fill="#333333" stroke="black" stroke-width="0.3" stroke-linecap="round" stroke-linejoin="round"/>
<path d="M317.548 213.041C315.388 214.67 313.244 214.925 310.771 214.362C303.574 212.712 296.441 210.785 289.346 208.694C288.412 208.418 287.892 208.477 287.754 209.618C287.706 209.989 287.51 210.345 287.345 210.69C286.459 212.526 286.061 212.701 284.246 212.123C283.943 212.027 283.635 211.942 283.333 211.841C282.51 211.581 281.486 211.55 280.918 210.992C280.239 210.329 281.3 209.517 281.337 208.673C281.39 207.341 281.109 206.173 280.313 205.181C279.873 204.634 279.995 204.433 280.562 204.167C281.836 203.578 282.988 203.355 284.442 203.859C295.157 207.564 306.042 210.573 317.086 212.839C317.214 212.866 317.325 212.94 317.553 213.041H317.548Z" fill="#333333" stroke="black" stroke-width="0.3" stroke-linecap="round" stroke-linejoin="round"/>
<path d="M77.7631 195.23C77.4712 196.684 77.3067 198.483 75.3112 198.924C74.6213 199.078 74.8177 199.571 74.8548 199.991C74.9928 201.662 74.5842 203.122 73.5493 204.321C72.4188 205.632 71.3999 205.579 70.3384 204.072C69.4362 202.787 68.6773 201.408 67.8388 200.076C67.5416 199.608 67.5628 199.221 67.8494 198.796C70.0147 195.639 72.1694 192.46 74.34 189.286C74.5152 189.031 74.8283 188.511 75.1361 189.095C76.1498 191 77.7472 192.672 77.7631 195.23ZM74.0375 200.436C74.0004 198.982 73.2521 197.916 72.5993 196.812C71.9837 195.771 71.3609 195.718 70.7312 196.652C69.4362 198.574 69.4026 200.435 70.6303 202.236C71.6705 203.769 72.663 203.791 73.5015 202.278C73.8305 201.684 74.0163 201.031 74.0375 200.436ZM76.8078 195.124C76.8078 194.312 75.1786 190.905 74.7964 191.022C73.7456 191.34 73.597 192.582 72.9124 193.298C72.8806 193.33 72.8646 193.373 72.8328 193.41C72.4772 193.84 72.4507 194.296 72.785 194.811C73.2521 195.533 73.6501 196.297 74.1543 196.987C74.8177 197.889 75.5447 197.862 76.1604 197.04C76.569 196.493 76.8132 195.856 76.8078 195.129V195.124Z" fill="#333333" stroke="black" stroke-width="0.3" stroke-linecap="round" stroke-linejoin="round"/>
<path d="M292.279 217.908C288.919 219.367 285.56 220.826 282.195 222.265C281.537 222.546 280.959 222.111 280.354 221.967C279.17 221.681 277.997 221.32 276.469 220.89C278.533 219.999 280.274 219.24 282.009 218.486C282.805 218.141 283.686 217.923 284.392 217.425C287.094 215.514 289.646 216.761 292.273 217.902L292.279 217.908Z" fill="#333333" stroke="black" stroke-width="0.3" stroke-linecap="round" stroke-linejoin="round"/>
<path d="M83.0018 219.659C82.8585 218.82 82.4021 218.237 81.9563 217.701C81.1071 216.671 81.33 215.822 82.1526 215.19C84.0526 213.731 86.186 212.648 88.4044 211.73C88.6592 211.624 88.9192 211.539 89.105 211.889C89.3173 212.282 89.0201 212.5 88.8555 212.744C87.6561 214.479 86.4461 216.204 85.2414 217.929C84.8115 218.544 84.2542 219.107 84.8752 220.03C85.1299 220.402 84.8433 220.742 84.6098 221.017C84.3604 221.315 84.1481 221.108 83.9464 220.879C83.5378 220.418 83.3149 220.742 83.1079 221.044C82.7789 221.522 82.4923 222.042 82.1367 222.493C81.9616 222.71 81.9722 223.395 81.4308 222.96C81.0487 222.652 81.3088 222.27 81.4998 221.967C82.004 221.177 82.5188 220.397 82.9964 219.659H83.0018ZM87.274 213.556C85.7243 213.736 84.578 214.453 83.4316 215.164C83.0867 215.376 82.4233 215.541 82.609 216.061C82.8532 216.751 83.3414 217.371 83.7925 217.976C83.9623 218.205 84.2065 217.992 84.3338 217.807C85.3157 216.395 86.2922 214.978 87.274 213.556Z" fill="#333333" stroke="black" stroke-width="0.3" stroke-linecap="round" stroke-linejoin="round"/>
<path d="M77.9324 217.366C77.3221 216.57 77.8528 216.225 78.0704 215.854C79.5936 213.258 81.1432 210.679 82.6876 208.084C83.091 207.405 83.6747 206.688 82.1357 206.667C81.796 206.667 81.1804 206.635 81.2653 206.03C81.3343 205.552 81.5837 205.085 82.263 205.186C82.7938 205.266 83.3404 205.197 83.8764 205.229C84.3328 205.255 84.837 204.56 85.182 205.176C85.4526 205.659 84.8582 206.062 84.6088 206.476C82.6505 209.713 80.6762 212.935 78.7073 216.146C78.4791 216.522 78.2349 216.889 77.9271 217.361L77.9324 217.366Z" fill="#333333" stroke="black" stroke-width="0.3" stroke-linecap="round" stroke-linejoin="round"/>
<path d="M74.6328 204.486C74.9619 204.024 75.2909 203.557 75.6253 203.095C76.3789 204.284 77.1325 205.468 77.8861 206.656C77.5783 207.134 77.2705 207.612 76.968 208.089C76.1931 206.89 75.413 205.685 74.6381 204.486H74.6328Z" fill="#333333" stroke="black" stroke-width="0.3" stroke-linecap="round" stroke-linejoin="round"/>
<path d="M285.719 199.964C288.903 198.685 291.949 197.172 295.182 196.169C295.845 195.962 296.508 195.782 297.177 196.079C297.819 196.366 298.435 196.753 298.419 197.608C298.408 198.398 297.755 198.579 297.193 198.775C293.133 200.192 289.222 202.029 285.236 203.642C281.123 205.308 277.631 207.941 274.298 210.849C272.393 212.51 270.264 213.603 267.988 214.442C259.47 217.584 250.915 220.593 242.423 223.729C229.835 228.378 217.082 232.417 204.636 237.289C201.967 238.335 199.197 239.099 196.347 237.517C195.551 237.077 194.845 236.605 195.222 235.538C195.566 234.556 196.352 234.121 197.297 234.455C201.309 235.877 204.605 234.094 207.587 231.818C215.665 225.656 224.485 221.368 234.441 219.728C235.8 219.505 237.212 219.404 237.939 221.129C238.236 221.829 238.719 221.458 239.101 221.325C244.153 219.531 249.206 217.706 254.253 215.854C257.034 214.835 259.804 213.789 262.58 212.749C268.901 210.382 274.425 206.63 279.234 201.646C282.524 198.239 284.668 194.052 286.467 189.626C286.722 189.005 286.977 188.384 287.263 187.779C287.842 186.569 288.765 186.5 289.8 186.956C290.941 187.46 290.623 188.363 290.304 189.265C288.999 192.927 287.783 196.626 285.719 199.969V199.964ZM232.276 223.724C226.857 224.653 221.667 226.266 216.885 229.121C222.017 227.344 227.149 225.544 232.276 223.724Z" fill="#666666" stroke="black" stroke-width="0.3" stroke-linecap="round" stroke-linejoin="round"/>
<path d="M117.704 223.273C116.377 223.289 115.093 223.04 113.814 222.578C104.548 219.271 95.2762 215.944 86.01 212.59C85.5323 212.415 85.0653 212.202 84.5877 212.027C83.903 211.772 83.5156 211.353 83.5156 210.552C83.5156 209.692 83.8075 209.124 84.6036 208.901C87.2519 208.148 89.9744 207.559 92.5378 206.577C96.948 204.889 101.167 205.791 105.588 207.484C113.405 210.478 121.334 213.083 129.205 215.859C130.033 216.151 131.232 216.177 131.471 217.265C131.789 218.704 131.779 220.216 131.391 221.628C131.184 222.371 130.415 222.355 129.81 222.45C125.814 223.082 121.77 223.294 117.699 223.273H117.704Z" fill="#5740C0" stroke="black" stroke-width="0.3" stroke-linecap="round" stroke-linejoin="round"/>
<path opacity="0.1" fill-rule="evenodd" clip-rule="evenodd" d="M374.806 180.131C374.795 180.359 374.779 180.582 374.763 180.8C372.587 189.265 366.192 196.976 356.422 201.63C348.785 205.266 341.211 209.034 333.5 212.76C335.214 214.638 336.838 216.427 338.462 218.205C337.958 218.327 337.454 218.444 336.95 218.56C337.135 219.064 337.263 219.611 337.518 220.073C338.361 221.591 339.253 223.071 340.123 224.573C337.719 222.031 335.135 219.654 332.98 216.883C332.279 215.976 331.595 215.408 330.889 215.116C330.671 214.888 330.454 214.66 330.231 214.426C329.881 214.585 329.536 214.75 329.185 214.904C328.448 214.994 327.641 215.286 326.723 215.721C320.216 218.815 313.561 221.532 306.906 224.212C295.363 228.861 283.443 231.929 271.03 233.962C276.793 239.274 282 244.634 286.431 250.78C284.223 252.781 287.652 254.293 286.792 256.177C281.135 249.023 275.116 242.235 268.376 236.122C267.867 235.66 267.368 235.347 266.869 235.145C266.476 234.986 266.094 234.896 265.712 234.853H265.707C264.162 234.673 262.639 235.257 261.105 235.304C243.231 235.899 225.362 236.318 207.503 236.689C204.632 236.748 201.793 237.613 198.938 238.096C199.028 237.995 199.102 237.841 199.208 237.809C217.438 231.664 235.737 225.454 253.866 218.571C260.601 216.013 267.983 215.026 273.789 209.878C277.244 206.816 280.906 204.008 284.467 201.079C283.655 202.113 282.849 203.143 281.766 204.528C285.799 202.713 289.414 201.079 293.357 199.279C289.801 197.103 287.402 199.699 284.765 200.76C286.129 197.815 287.492 194.864 288.862 191.918C289.021 191.372 289.175 190.83 289.334 190.279C297.778 186.611 306.614 184.934 315.588 183.347C331.335 180.566 346.407 183.528 361.585 186.42C370.231 188.05 374.906 180.901 372.879 169.788C372.316 166.683 372.03 163.515 371.621 160.373C372.99 162.66 374.004 165.017 374.652 167.405C374.37 167.442 374.084 167.484 373.803 167.521C373.813 167.633 373.829 167.75 373.845 167.861C374.232 171.019 374.668 174.171 374.8 177.356C374.811 177.499 374.821 177.637 374.827 177.78C374.88 178.566 374.848 179.346 374.795 180.131H374.806Z" fill="black"/>
<path opacity="0.1" fill-rule="evenodd" clip-rule="evenodd" d="M285.748 191.366C283.96 196.154 281.004 200.06 277.565 203.594C258.814 218.284 235.521 220.556 214.972 229.891C219.95 226.017 225.762 224.265 232.263 222.413C227.906 219.845 224.881 222.689 221.649 223.528C212.595 225.874 207.017 236.87 196.116 234.636C195.904 234.593 195.543 235.448 195.251 235.883C195.219 236.143 195.182 236.398 195.15 236.658C193.648 236.727 192.146 236.806 190.644 236.896C190.623 236.896 190.607 236.896 190.586 236.896C189.45 236.896 188.32 236.912 187.184 236.923C186.483 236.934 185.772 236.95 185.066 236.955C184.907 237.04 184.716 237.003 184.552 237.003C181.351 237.045 178.146 237.088 174.946 237.109C174.686 237.358 174.325 237.517 173.847 237.613C173.178 237.74 172.504 237.846 171.83 237.931C171.825 237.937 171.82 237.937 171.814 237.937C167.505 238.069 163.196 238.059 158.892 237.783C158.303 237.746 157.719 237.708 157.135 237.682C157.13 237.682 157.119 237.682 157.114 237.682C156.7 237.565 156.312 237.438 155.898 237.3C155.522 237.3 155.15 237.305 154.779 237.31C151.881 237.337 148.988 237.369 146.085 237.395C146.075 237.395 146.07 237.395 146.064 237.395C146.038 237.395 146.001 237.395 145.974 237.395C142.211 237.379 138.454 237.438 134.702 237.486C134.601 237.486 134.505 237.486 134.399 237.486C130.042 237.544 125.69 237.602 121.328 237.544C119.115 237.517 116.896 237.464 114.678 237.363C103.273 236.865 91.9102 238.563 80.4786 235.538C80.1018 235.437 79.7515 235.172 79.3906 234.981C93.773 238.722 102.063 227.03 114.359 222.567C103.533 218.709 93.8048 215.201 83.8645 211.592C88.3915 211.242 92.616 210.902 96.8458 210.552C108.224 212.478 118.786 217.663 129.724 221.309C122.214 225.592 114.715 229.817 106.706 234.248C111.037 236.058 114.858 235.018 118.563 234.747C139.674 233.224 160.914 231.77 181.585 226.908C196.44 223.416 210.971 218.311 225.517 213.29C244.92 206.587 264.185 199.221 283.503 191.876C284.214 191.605 285 191.536 285.748 191.366Z" fill="black"/>
<path opacity="0.1" fill-rule="evenodd" clip-rule="evenodd" d="M263.44 97.2125C256.96 96.4376 250.443 95.8326 244.69 92.0221C242.838 90.7908 241.771 89.1828 242.286 86.7468C244 85.8923 245.714 85.0432 247.434 84.1888C247.609 84.0826 247.789 83.9818 247.964 83.8756C248.59 83.7589 249.222 83.6474 249.848 83.5307C250.167 83.3927 250.485 83.2547 250.798 83.122C251.026 83.122 251.249 83.122 251.478 83.122C251.663 83.1008 251.854 83.0743 252.04 83.053C252.221 83.0371 252.396 83.0159 252.576 82.9999C253.165 82.8567 253.749 82.7187 254.338 82.5754C254.832 82.5701 255.331 82.5595 255.824 82.5488C256.323 82.4639 256.827 82.379 257.326 82.2941C260.68 82.2994 264.029 82.3047 267.383 82.3047C267.887 82.3843 268.386 82.4639 268.89 82.5435C269.479 82.5541 270.063 82.5648 270.652 82.5754C271.061 82.7027 271.475 82.8354 271.884 82.9628C272.329 82.9946 272.775 83.0265 273.221 83.0583C273.587 83.1273 273.959 83.2016 274.33 83.2706C274.595 83.2918 274.861 83.3184 275.121 83.3449C275.397 83.4192 275.673 83.4988 275.949 83.5731C276.214 83.5997 276.48 83.6262 276.745 83.6527C276.936 83.7164 277.122 83.7748 277.313 83.8385C277.663 83.8809 278.019 83.9181 278.374 83.9605C278.56 84.0242 278.751 84.0932 278.937 84.1569C279.112 84.1834 279.287 84.2047 279.462 84.2312C279.648 84.3002 279.839 84.3692 280.025 84.4382C280.2 84.4594 280.375 84.4806 280.55 84.5019C280.736 84.5762 280.922 84.6505 281.113 84.7195C281.288 84.746 281.463 84.7725 281.638 84.7991C283.766 83.5572 286.303 90.6847 288.187 84.4223C290.315 86.1046 290.119 88.5406 289.498 90.7112C288.665 93.6355 285.963 94.6173 283.57 95.1055C278.549 96.1298 273.439 96.634 268.365 97.3452C267.537 94.9782 269.708 92.0858 267.245 90.0001C266.353 89.9417 265.467 89.8833 264.576 89.8249C262.156 91.9372 264.061 94.803 263.45 97.2284L263.44 97.2125Z" fill="black"/>
<path opacity="0.1" fill-rule="evenodd" clip-rule="evenodd" d="M348.385 235.32C348.618 235.278 348.852 235.235 349.086 235.188C349.892 234.779 350.842 234.54 351.484 233.93C356.542 229.116 361.536 224.228 366.551 219.362C362.391 227.237 356.08 233.028 348.496 236.244C326.058 245.765 303.37 254.378 280.719 262.758C279.44 263.23 277.736 262.381 276.234 262.143C277.906 262.089 279.716 262.461 281.228 261.904C291.97 257.945 302.653 253.731 313.342 249.48C320.862 246.486 328.366 243.419 335.881 240.341C336.115 240.298 336.354 240.261 336.587 240.219C339.129 239.2 341.671 238.175 344.214 237.146C344.569 237.019 344.93 236.891 345.286 236.769C346.32 236.286 347.355 235.803 348.385 235.315V235.32Z" fill="black"/>
<path opacity="0.1" fill-rule="evenodd" clip-rule="evenodd" d="M268.063 118.414C268.779 118.6 269.49 118.786 270.207 118.966C270.239 120.548 268.869 120.426 268.057 120.978C267.702 120.458 267.346 119.932 266.991 119.412C265.988 119.359 264.985 119.306 263.981 119.253C263.705 119.847 263.435 120.447 263.159 121.042C262.368 120.357 261.572 119.667 260.781 118.982C261.397 118.802 262.013 118.621 262.633 118.441C263.074 118.377 263.509 118.314 263.95 118.25C264.236 118.213 264.523 118.176 264.809 118.139C265.255 118.139 265.706 118.149 266.152 118.154C266.348 118.186 266.545 118.218 266.741 118.25C267.182 118.303 267.622 118.361 268.068 118.414H268.063Z" fill="black"/>
<path opacity="0.1" fill-rule="evenodd" clip-rule="evenodd" d="M366.5 219.372C366.606 219.256 366.718 219.144 366.824 219.027C366.718 219.144 366.606 219.261 366.5 219.372Z" fill="black"/>
<path opacity="0.1" fill-rule="evenodd" clip-rule="evenodd" d="M289.953 189.021C289.99 188.893 290.027 188.766 290.065 188.633C290.134 188.777 290.203 188.915 290.266 189.058C290.16 189.047 290.059 189.031 289.953 189.021Z" fill="black"/>
<path opacity="0.1" fill-rule="evenodd" clip-rule="evenodd" d="M102.767 219.006C98.4042 217.042 94.185 216.427 89.4564 218.12C91.2449 218.916 92.6566 219.537 94.201 220.232C92.1312 221.4 90.2684 222.45 86.4844 224.568C93.5641 223.008 98.4891 222.137 102.772 219.011L102.767 219.006ZM93.2881 218.39C95.6817 218.014 97.9053 217.196 100.341 218.672C98.0699 220.885 95.8249 221.182 93.2881 218.39Z" fill="black"/>
<path opacity="0.1" fill-rule="evenodd" clip-rule="evenodd" d="M344.739 229.631C343.916 228.702 343.088 227.768 342.266 226.839C343.088 227.773 343.916 228.702 344.739 229.631Z" fill="black"/>
<path opacity="0.1" fill-rule="evenodd" clip-rule="evenodd" d="M214.433 229.896C214.401 229.918 214.374 229.96 214.348 229.955C214.321 229.955 214.3 229.902 214.273 229.875C214.3 229.854 214.332 229.811 214.358 229.817C214.385 229.817 214.406 229.87 214.433 229.896Z" fill="black"/>
<path opacity="0.1" fill-rule="evenodd" clip-rule="evenodd" d="M361.579 186.42C346.395 183.528 331.328 180.566 315.582 183.347C306.613 184.934 297.776 186.611 289.327 190.279C289.529 189.859 289.741 189.44 289.943 189.026C290.049 189.037 290.15 189.047 290.261 189.063C290.192 188.92 290.123 188.782 290.06 188.639C290.065 188.288 290.065 187.933 290.07 187.582C285.994 185.422 287.395 190.379 285.745 191.372C284.997 191.542 284.216 191.611 283.5 191.881C264.177 199.226 244.912 206.593 225.514 213.296C210.967 218.316 196.436 223.427 181.582 226.914C160.91 231.775 139.671 233.229 118.559 234.752C114.855 235.023 111.034 236.063 106.703 234.253C114.712 229.827 122.211 225.603 129.72 221.315C130.325 219.25 132.124 217.042 128.351 215.811C124.052 214.394 119.822 212.696 115.561 211.114C116.293 211.374 117.031 211.629 117.769 211.889C118.129 211.778 118.496 211.672 118.856 211.565C129.407 208.445 140.053 205.547 150.604 202.23C156.075 200.516 161.542 198.786 166.934 196.801C168.871 196.063 170.808 195.299 172.74 194.535C173.685 194.142 174.629 193.744 175.574 193.33C175.585 193.325 175.59 193.325 175.6 193.319C175.606 193.314 175.616 193.314 175.622 193.309C187.186 189.074 196.866 181.601 204.142 171.04C206.334 167.856 206.021 162.777 207.215 158.69C208.929 152.821 213.196 149.514 218.296 147.211C218.111 147.556 218.004 148.076 217.718 148.23C212.846 150.884 211.392 155.591 211.015 160.941C210.978 161.514 211.217 162.113 211.328 162.708C211.567 162.628 211.88 162.623 212.034 162.453C221.571 152.152 233.225 145.417 245.888 140.429C253.292 137.51 260.785 134.867 268.242 132.064C262.139 134.936 255.706 136.873 249.619 139.648C239.833 144.106 228.831 147.264 223.842 158.616C220.101 167.139 220.647 176.761 220.467 186.027C220.35 192.115 221.895 197.565 228.964 198.138C238.081 198.871 246.552 195.596 255.139 193.144C287.279 183.952 319.509 174.882 352.933 171.926C356.314 171.629 361.011 172.006 361.727 166.943C362.55 161.121 364.832 154.381 357.593 150.852C352.291 148.267 346.766 146.388 341.008 145.173C337.564 144.441 334.157 143.533 330.739 142.695C333.981 141.633 337.065 141.644 340.143 141.495C341.072 141.453 341.995 141.007 342.919 140.752C342.537 139.898 342.335 138.868 341.751 138.215C338.763 134.824 334.634 133.503 330.723 131.847C325.193 129.501 319.573 127.336 313.989 125.08C327.618 128.599 342.521 129.634 352.349 141.617C358.033 148.559 366.275 152.009 371.291 159.396C371.471 159.667 371.519 160.044 371.625 160.373C372.034 163.515 372.32 166.683 372.883 169.788C374.905 180.901 370.235 188.049 361.589 186.42H361.579Z" fill="#4F4F4F"/>
<path opacity="0.1" fill-rule="evenodd" clip-rule="evenodd" d="M83.8565 211.597C88.3835 211.247 92.608 210.907 96.8377 210.557C96.652 209.029 96.4716 207.495 96.2911 205.961C93.2289 206.831 92.1038 203.865 91.244 202.172C88.4153 196.546 78.5175 194.036 83.6336 184.695C85.5017 181.278 85.6768 176.045 81.3568 173.428C76.6918 170.6 74.6114 174.76 72.5576 178.051C72.4249 178.258 71.7615 178.279 71.4325 178.136C64.703 175.196 61.8318 177.817 62.6969 185.566C64.1139 198.202 68.2588 210.233 72.7433 222.206C73.9109 225.322 74.569 228.803 76.3681 231.701C76.3787 231.727 76.3946 231.749 76.4159 231.775C77.1642 232.969 78.1142 234.068 79.3773 234.991C93.7596 238.733 102.049 227.041 114.346 222.578C103.519 218.719 93.7915 215.211 83.8512 211.603L83.8565 211.597ZM89.4555 218.12C94.1842 216.432 98.4034 217.048 102.766 219.006C98.4883 222.132 93.5632 223.002 86.4782 224.563C90.2622 222.445 92.125 221.394 94.1948 220.227C92.6504 219.537 91.2387 218.916 89.4502 218.114L89.4555 218.12Z" fill="#4F4F4F"/>
<path opacity="0.1" fill-rule="evenodd" clip-rule="evenodd" d="M335.886 240.341C328.376 243.419 320.872 246.492 313.352 249.48C302.658 253.731 291.98 257.945 281.238 261.904C279.726 262.461 277.916 262.089 276.244 262.143C275.936 262.143 275.703 262.074 275.522 261.973C275.496 261.957 275.475 261.936 275.453 261.92C275.395 261.877 275.363 261.845 275.315 261.798C275.315 261.798 275.31 261.792 275.305 261.787C275.278 261.755 275.252 261.734 275.236 261.702C275.045 261.4 275.045 260.98 275.188 260.513C275.618 259.208 276.594 259.51 277.613 259.648C280.474 260.052 283.159 259.786 285.303 257.886H285.309C285.309 257.886 285.309 257.886 285.314 257.881C285.378 257.854 285.436 257.833 285.5 257.807C286.556 257.403 286.853 257.095 286.577 256.469C286.651 256.374 286.72 256.273 286.789 256.172C287.644 254.293 284.216 252.775 286.429 250.775C287.347 252.749 288.424 253.932 289.618 254.543C290.26 255.44 290.844 255.562 291.794 255.195C291.895 255.158 291.99 255.121 292.097 255.084C292.097 255.084 292.102 255.084 292.107 255.084C293.768 255.031 295.578 254.299 297.457 253.29C298.9 252.51 300.519 252.091 302.058 251.507C302.775 254.054 304.33 252.287 305.253 251.942C315.225 248.233 325.144 244.316 335.084 240.404C335.323 240.314 335.61 240.367 335.875 240.351L335.886 240.341Z" fill="#4F4F4F"/>
<path opacity="0.1" fill-rule="evenodd" clip-rule="evenodd" d="M195.141 236.658C195.178 236.398 195.21 236.143 195.247 235.883C197.221 237.135 199.355 237.273 201.403 236.583C218.694 230.735 235.979 224.621 253.233 218.252C259.256 216.029 265.895 214.617 271.022 210.881C277.9 205.871 284.863 200.304 288.865 191.913C287.501 194.864 286.132 197.809 284.768 200.755C284.672 200.856 284.577 200.962 284.476 201.068C280.909 203.997 277.247 206.805 273.792 209.867C267.986 215.01 260.604 216.002 253.875 218.555C235.74 225.444 217.447 231.648 199.217 237.793C199.105 237.831 199.031 237.984 198.941 238.085C197.677 237.608 196.409 237.13 195.146 236.652L195.141 236.658Z" fill="#4F4F4F"/>
<path opacity="0.1" fill-rule="evenodd" clip-rule="evenodd" d="M366.552 219.362C361.536 224.228 356.542 229.116 351.485 233.93C350.843 234.54 349.893 234.779 349.086 235.188C354.977 229.318 361.94 224.573 366.387 217.186C367.873 214.723 368.839 211.921 370.044 209.273C370.299 212.584 368.43 215.238 367.311 218.125C367.13 218.433 366.95 218.735 366.769 219.043L366.822 219.022C366.716 219.139 366.605 219.256 366.499 219.367C366.515 219.367 366.536 219.367 366.552 219.362Z" fill="#4F4F4F"/>
<path opacity="0.1" fill-rule="evenodd" clip-rule="evenodd" d="M340.193 220.205C339.1 220.662 339.254 221.384 340.931 223.199C343.229 225.688 345.601 228.103 347.862 230.618C348.616 231.457 348.552 232.29 347.162 232.417C347.082 232.285 346.997 232.147 346.917 232.014C346.721 231.775 346.519 231.536 346.323 231.297C345.798 230.745 345.272 230.188 344.742 229.636C343.919 228.708 343.091 227.773 342.268 226.845C341.552 226.091 340.835 225.337 340.119 224.579C339.249 223.082 338.357 221.596 337.513 220.078C337.258 219.616 337.131 219.075 336.945 218.571C337.449 218.454 337.954 218.332 338.458 218.215C339.036 218.879 339.615 219.547 340.193 220.211V220.205Z" fill="#4F4F4F"/>
<path opacity="0.1" fill-rule="evenodd" clip-rule="evenodd" d="M268.063 118.415C268.498 112.635 266.126 107.025 267.543 101.103C267.835 101.055 269.14 101.718 268.588 99.9669C270.154 101.628 268.153 102.891 267.962 104.303C267.24 109.546 270.09 113.999 270.207 118.972C269.49 118.786 268.779 118.6 268.063 118.42V118.415Z" fill="#4F4F4F"/>
<path opacity="0.1" fill-rule="evenodd" clip-rule="evenodd" d="M281.633 84.7831C283.607 84.815 283.862 83.4192 283.83 81.7793C285.279 82.655 286.733 83.5307 288.182 84.4063C286.298 90.6688 283.761 83.5466 281.633 84.7831Z" fill="#4F4F4F"/>
<path opacity="0.1" fill-rule="evenodd" clip-rule="evenodd" d="M247.425 84.1834C245.71 85.0379 243.996 85.8923 242.277 86.7415C241.858 84.1463 243.28 82.8089 245.228 81.8377C244.771 83.8862 245.726 84.4276 247.419 84.1834H247.425Z" fill="#4F4F4F"/>
<path opacity="0.1" fill-rule="evenodd" clip-rule="evenodd" d="M262.633 118.436C262.018 118.616 261.402 118.797 260.781 118.977C261.556 116.674 260.749 113.824 262.893 111.993C262.803 114.142 262.718 116.286 262.628 118.436H262.633Z" fill="#4F4F4F"/>
<path opacity="0.1" fill-rule="evenodd" clip-rule="evenodd" d="M268.28 98.9585C266.253 96.1882 268.359 92.8712 267.234 89.9842C269.697 92.0699 267.526 94.9623 268.354 97.3292C268.328 97.8706 268.306 98.4172 268.28 98.9585Z" fill="#4F4F4F"/>
<path opacity="0.1" fill-rule="evenodd" clip-rule="evenodd" d="M264.564 89.8037C264.193 92.7545 263.826 95.6999 263.455 98.6507C263.455 98.1677 263.444 97.6901 263.439 97.2071C264.049 94.7818 262.144 91.9159 264.564 89.8037Z" fill="#4F4F4F"/>
<path opacity="0.1" fill-rule="evenodd" clip-rule="evenodd" d="M272.427 131.375C271.424 131.773 270.427 132.176 269.195 132.664C269.583 131.969 269.811 131.566 270.034 131.162C270.83 131.231 271.631 131.306 272.427 131.375Z" fill="#4F4F4F"/>
<path opacity="0.1" fill-rule="evenodd" clip-rule="evenodd" d="M312.378 125.054C312.096 124.969 311.815 124.889 311.539 124.804C311.82 124.889 312.096 124.969 312.378 125.054Z" fill="#4F4F4F"/>
<path opacity="0.1" fill-rule="evenodd" clip-rule="evenodd" d="M252.57 82.984C253.159 82.8407 253.743 82.6974 254.332 82.5594C253.743 82.7027 253.159 82.846 252.57 82.984Z" fill="#4F4F4F"/>
<path opacity="0.1" fill-rule="evenodd" clip-rule="evenodd" d="M267.383 82.2888C267.887 82.3684 268.386 82.448 268.89 82.5223C268.391 82.4427 267.887 82.3631 267.383 82.2888Z" fill="#4F4F4F"/>
<path opacity="0.1" fill-rule="evenodd" clip-rule="evenodd" d="M275.932 82.9999C275.932 83.1857 275.932 83.3714 275.937 83.5572C275.661 83.4829 275.385 83.4033 275.109 83.329C275.385 83.2175 275.656 83.1114 275.932 82.9999Z" fill="#4F4F4F"/>
<path opacity="0.1" fill-rule="evenodd" clip-rule="evenodd" d="M249.844 83.5253C250.162 83.3874 250.475 83.2494 250.794 83.1114C250.475 83.2494 250.157 83.3874 249.844 83.5253Z" fill="#4F4F4F"/>
<path opacity="0.1" fill-rule="evenodd" clip-rule="evenodd" d="M274.317 82.9522C274.317 83.053 274.317 83.1538 274.323 83.2547C273.956 83.1857 273.585 83.1114 273.219 83.0424C273.399 82.9309 273.585 82.8195 273.765 82.7027C273.951 82.7823 274.132 82.8672 274.317 82.9469V82.9522Z" fill="#4F4F4F"/>
<path opacity="0.1" fill-rule="evenodd" clip-rule="evenodd" d="M280.539 84.4859C280.725 84.5602 280.911 84.6345 281.102 84.7035C280.916 84.6292 280.73 84.5549 280.539 84.4859Z" fill="#4F4F4F"/>
<path opacity="0.1" fill-rule="evenodd" clip-rule="evenodd" d="M276.734 83.6368C276.925 83.7005 277.111 83.7589 277.302 83.8226C277.111 83.7589 276.925 83.6952 276.734 83.6368Z" fill="#4F4F4F"/>
<path opacity="0.1" fill-rule="evenodd" clip-rule="evenodd" d="M348.388 235.32C347.354 235.803 346.324 236.291 345.289 236.774C346.324 236.291 347.354 235.808 348.388 235.32Z" fill="#4F4F4F"/>
<path opacity="0.1" fill-rule="evenodd" clip-rule="evenodd" d="M93.2891 218.39C95.6826 218.014 97.9063 217.191 100.337 218.666C98.0708 220.879 95.8259 221.177 93.2891 218.39Z" fill="#4F4F4F"/>
<path opacity="0.1" fill-rule="evenodd" clip-rule="evenodd" d="M357.592 150.852C352.29 148.267 346.766 146.388 341.007 145.173C337.563 144.441 334.156 143.533 330.738 142.695C333.981 141.633 337.064 141.644 340.142 141.495C341.071 141.453 341.994 141.007 342.918 140.752C342.536 139.898 342.334 138.868 341.75 138.215C338.762 134.824 334.633 133.503 330.722 131.847C325.192 129.501 319.572 127.336 313.989 125.08C313.453 125.07 312.917 125.059 312.381 125.054C312.105 124.974 311.818 124.884 311.542 124.804C298.131 124.401 285.256 127.718 272.434 131.38C271.431 131.778 270.428 132.176 269.202 132.664C269.589 131.974 269.812 131.571 270.04 131.168C269.297 131.221 268.565 131.279 268.066 131.316C268.066 127.872 268.066 124.427 268.066 120.983C267.71 120.458 267.355 119.932 267.005 119.412C266.904 123.026 266.734 126.635 266.739 130.244C266.745 131.905 265.662 131.836 264.749 131.9C264.526 131.921 264.038 130.897 264.022 130.345C263.953 126.646 263.99 122.952 263.99 119.253C263.719 119.842 263.443 120.442 263.167 121.042C263.13 122.628 263.454 124.364 262.966 125.776C262.154 128.089 264.829 131.868 261.48 132.717C246.721 136.469 232.105 140.513 218.301 147.211C218.115 147.556 218.009 148.076 217.722 148.23C212.85 150.884 211.396 155.591 211.02 160.941C210.982 161.514 211.221 162.113 211.333 162.708C211.571 162.628 211.885 162.623 212.038 162.453C221.575 152.152 233.23 145.417 245.893 140.429C253.296 137.51 260.79 134.867 268.246 132.064C262.143 134.936 255.711 136.873 249.624 139.648C239.837 144.106 228.836 147.264 223.847 158.616C220.105 167.139 220.652 176.761 220.472 186.027C220.355 192.115 221.899 197.565 228.968 198.138C238.086 198.871 246.556 195.596 255.143 193.144C287.283 183.952 319.513 174.882 352.938 171.926C356.318 171.629 361.015 172.006 361.732 166.943C362.554 161.121 364.836 154.381 357.597 150.852H357.592ZM352.864 155.814C352.211 160.511 351.606 165.213 346.299 166.869C344.6 167.394 342.939 168.132 341.214 168.514C328.435 171.337 316.032 176.379 299.734 176.512C295.334 176.878 287.872 177.839 280.4 177.998C266.07 178.306 264.653 176.767 262.897 161.62C260.758 143.061 265.301 137.531 287.055 131.645C294.087 129.74 301.045 127.325 308.427 128.047C312.556 128.45 316.334 130.425 317.645 134.559C320.867 144.685 328.944 144.871 336.772 146.213C340.912 146.93 344.961 148.368 348.931 149.822C351.383 150.714 353.336 152.449 352.864 155.803V155.814Z" fill="#999999"/>
<path opacity="0.1" fill-rule="evenodd" clip-rule="evenodd" d="M370.055 209.273C368.85 211.921 367.884 214.729 366.398 217.191C361.951 224.573 354.988 229.323 349.097 235.188C348.863 235.23 348.625 235.278 348.396 235.32C347.367 235.803 346.327 236.286 345.297 236.774C344.936 236.902 344.581 237.029 344.22 237.151C341.678 238.181 339.141 239.205 336.593 240.219C336.354 240.261 336.126 240.304 335.887 240.341C335.622 240.357 335.33 240.304 335.097 240.394C325.156 244.305 315.237 248.222 305.265 251.932C304.342 252.282 302.781 254.044 302.07 251.496C314.903 246.55 327.778 241.615 340.531 236.281C342.458 235.474 345.042 235.644 346.496 233.707H346.502C347.038 233.399 347.223 233.118 347.064 232.714C347.101 232.619 347.144 232.513 347.176 232.412C348.561 232.279 348.63 231.451 347.876 230.613C345.61 228.103 343.238 225.682 340.945 223.199C339.268 221.378 339.114 220.662 340.207 220.206C343.386 223.761 346.624 227.259 349.713 230.873C350.567 231.876 350.928 231.621 351.814 230.905C358.698 225.385 364.265 218.815 367.205 210.085C367.752 208.466 368.893 208.567 370.065 209.273H370.055Z" fill="#999999"/>
<path opacity="0.1" fill-rule="evenodd" clip-rule="evenodd" d="M96.8435 210.552C96.6631 209.018 96.4773 207.49 96.2969 205.961C102.527 205.027 107.803 209.188 113.603 210.515C114.267 210.663 114.909 210.913 115.562 211.12C119.823 212.701 124.053 214.399 128.352 215.811C132.125 217.048 130.326 219.256 129.721 221.32C118.783 217.669 108.222 212.484 96.8435 210.557V210.552Z" fill="#999999"/>
<path opacity="0.1" fill-rule="evenodd" clip-rule="evenodd" d="M275.938 82.9999C276.219 81.912 276.495 80.8187 276.776 79.7307C279.127 80.4154 281.478 81.1 283.829 81.7793C283.861 83.4139 283.606 84.815 281.632 84.7831C281.457 84.7566 281.282 84.7301 281.107 84.7035C280.921 84.6292 280.735 84.5549 280.544 84.4859C280.369 84.4647 280.194 84.4435 280.019 84.4223C279.833 84.3533 279.642 84.2843 279.456 84.2153C279.281 84.194 279.106 84.1675 278.931 84.141C278.745 84.0773 278.554 84.0083 278.368 83.9446C278.013 83.9022 277.662 83.865 277.307 83.8226C277.116 83.7589 276.93 83.7005 276.739 83.6368C276.474 83.6103 276.208 83.5837 275.943 83.5572C275.943 83.3714 275.943 83.1857 275.938 82.9999Z" fill="#999999"/>
<path opacity="0.1" fill-rule="evenodd" clip-rule="evenodd" d="M247.425 84.1834C245.727 84.4276 244.771 83.8862 245.233 81.8377C246.135 81.4343 247.043 81.031 247.945 80.6277C247.945 81.7103 247.95 82.7877 247.956 83.8703C247.781 83.9765 247.6 84.0773 247.425 84.1834Z" fill="#999999"/>
<path opacity="0.1" fill-rule="evenodd" clip-rule="evenodd" d="M278.819 203.244C278.485 203.493 277.981 203.483 277.556 203.594C258.806 218.284 235.513 220.556 214.964 229.891C219.942 226.017 225.753 224.265 232.254 222.413C227.897 219.845 224.872 222.689 221.64 223.528C212.586 225.874 207.008 236.87 196.107 234.636C195.895 234.593 195.534 235.448 195.242 235.883C197.216 237.13 199.35 237.279 201.393 236.583C218.684 230.735 235.964 224.626 253.223 218.252C259.246 216.029 265.88 214.617 271.007 210.886C277.885 205.871 284.848 200.304 288.85 191.918C289.009 191.372 289.163 190.83 289.322 190.279C289.524 189.859 289.736 189.44 289.938 189.026C289.975 188.899 290.012 188.771 290.049 188.639C290.054 188.288 290.054 187.933 290.06 187.582C286.95 193.33 284.089 199.285 278.808 203.249L278.819 203.244ZM214.343 229.955C214.316 229.955 214.29 229.907 214.268 229.875C214.295 229.859 214.327 229.817 214.353 229.817C214.38 229.822 214.406 229.87 214.428 229.896C214.401 229.918 214.374 229.96 214.343 229.955Z" fill="#999999"/>
<path opacity="0.1" fill-rule="evenodd" clip-rule="evenodd" d="M284.475 201.073C284.57 200.967 284.671 200.861 284.767 200.76C287.41 199.699 289.803 197.098 293.364 199.279C289.421 201.068 285.807 202.703 281.773 204.523C282.856 203.143 283.668 202.108 284.475 201.073Z" fill="#999999"/>
<path opacity="0.1" fill-rule="evenodd" clip-rule="evenodd" d="M264.567 89.8037C265.459 89.8621 266.345 89.9205 267.237 89.9788C268.367 92.8659 266.255 96.1882 268.282 98.9532C268.383 99.2876 268.484 99.6219 268.585 99.9563C269.136 101.708 267.831 101.044 267.539 101.092C266.127 107.02 268.494 112.63 268.059 118.404C267.619 118.351 267.178 118.292 266.732 118.239C266.536 118.208 266.34 118.176 266.143 118.144C265.697 118.144 265.246 118.133 264.801 118.128C264.514 118.165 264.227 118.202 263.941 118.234C263.5 118.298 263.065 118.361 262.625 118.425C262.715 116.276 262.8 114.132 262.89 111.982C262.89 108.501 264.461 104.966 262.211 101.554C261.542 100.54 262.359 99.2982 263.447 98.6401C263.819 95.6893 264.19 92.7439 264.556 89.7931L264.567 89.8037Z" fill="#E8E8E8"/>
<path opacity="0.1" fill-rule="evenodd" clip-rule="evenodd" d="M255.824 82.5329C255.33 82.5435 254.831 82.5489 254.338 82.5542C253.749 82.6975 253.165 82.8408 252.576 82.9787C252.401 82.9947 252.22 83.0159 252.04 83.0318C251.854 83.053 251.663 83.0796 251.477 83.1008C251.249 83.1008 251.026 83.1008 250.798 83.1008C250.479 83.2388 250.161 83.3768 249.848 83.5148C249.216 83.6315 248.59 83.743 247.964 83.8597C247.964 82.7771 247.953 81.6997 247.953 80.6171C257.49 77.661 267.107 77.73 276.782 79.7148C276.5 80.8028 276.224 81.8961 275.943 82.984C275.667 83.0955 275.396 83.2016 275.12 83.3131C274.855 83.2865 274.59 83.2653 274.324 83.2388C274.324 83.1379 274.324 83.0371 274.319 82.9363C274.133 82.8567 273.953 82.7718 273.767 82.6921C273.587 82.8036 273.401 82.915 273.22 83.0318C272.775 83 272.329 82.9681 271.883 82.9363C271.474 82.8089 271.06 82.6762 270.652 82.5489C270.063 82.5382 269.479 82.5276 268.89 82.517C268.391 82.4374 267.887 82.3578 267.383 82.2835C264.028 82.2835 260.68 82.2835 257.326 82.2729C256.827 82.3578 256.322 82.4427 255.824 82.5276V82.5329Z" fill="#E8E8E8"/>
<path opacity="0.1" fill-rule="evenodd" clip-rule="evenodd" d="M290.077 187.577C286.972 193.325 284.106 199.279 278.826 203.244C278.491 203.493 277.987 203.483 277.562 203.589C281.002 200.06 283.958 196.154 285.746 191.366C287.397 190.379 286.001 185.417 290.077 187.577Z" fill="#E8E8E8"/>
<path opacity="0.1" fill-rule="evenodd" clip-rule="evenodd" d="M299.73 176.512C295.33 176.883 287.868 177.839 280.396 177.998C266.061 178.3 264.644 176.761 262.893 161.62C260.749 143.061 265.292 137.526 287.046 131.645C294.078 129.74 301.035 127.325 308.418 128.047C312.547 128.45 316.325 130.425 317.641 134.559C320.863 144.69 328.946 144.871 336.768 146.219C340.908 146.93 344.952 148.373 348.922 149.822C351.374 150.719 353.327 152.455 352.86 155.809C352.201 160.505 351.602 165.208 346.289 166.863C344.591 167.394 342.93 168.126 341.21 168.509C328.431 171.327 316.028 176.374 299.73 176.506V176.512Z" fill="#E8E8E8"/>
<path opacity="0.1" fill-rule="evenodd" clip-rule="evenodd" d="M263.982 119.248C264.985 119.301 265.988 119.354 266.991 119.407C266.896 123.016 266.72 126.63 266.726 130.239C266.726 131.895 265.648 131.831 264.736 131.895C264.518 131.911 264.019 130.892 264.009 130.34C263.945 126.646 263.977 122.947 263.977 119.248H263.982Z" fill="#E8E8E8"/>
</svg>
